999
dxfrw 0.6.3
  0
SECTION
  2
HEADER
  9
$ACADVER
  1
AC1021
  9
$DWGCODEPAGE
  3
ANSI_1252
  9
$INSBASE
 10
0
 20
0
 30
0
  9
$EXTMIN
 10
-1800000
 20
-1000000.000000002
 30
0
  9
$EXTMAX
 10
1800000
 20
2505002.656619275
 30
0
  9
$LIMMIN
 10
0
 20
0
  9
$LIMMAX
 10
420
 20
297
  9
$ORTHOMODE
 70
    0
  9
$REGENMODE
 70
    1
  9
$FILLMODE
 70
    1
  9
$QTEXTMODE
 70
    0
  9
$MIRRTEXT
 70
    0
  9
$LTSCALE
 40
1
  9
$ATTMODE
 70
    0
  9
$TEXTSIZE
 40
2.5
  9
$TRACEWID
 40
15.68
  9
$TEXTSTYLE
  7
STANDARD
  9
$CLAYER
  8
noname8
  9
$CELTYPE
  6
BYLAYER
  9
$CECOLOR
 62
  256
  9
$CELTSCALE
 40
1
  9
$DISPSILH
 70
    0
  9
$DIMSCALE
 40
2.5
  9
$DIMASZ
 40
2.5
  9
$DIMEXO
 40
0.625
  9
$DIMDLI
 40
3.75
  9
$DIMRND
 40
0
  9
$DIMDLE
 40
0
  9
$DIMEXE
 40
1.25
  9
$DIMTP
 40
0
  9
$DIMTM
 40
0
  9
$DIMTXT
 40
2.5
  9
$DIMCEN
 40
2.5
  9
$DIMTSZ
 40
0
  9
$DIMTOL
 70
    0
  9
$DIMLIM
 70
    0
  9
$DIMTIH
 70
    0
  9
$DIMTOH
 70
    0
  9
$DIMSE1
 70
    0
  9
$DIMSE2
 70
    0
  9
$DIMTAD
 70
    1
  9
$DIMZIN
 70
    8
  9
$DIMBLK
  1

  9
$DIMASO
 70
    1
  9
$DIMSHO
 70
    1
  9
$DIMPOST
  1

  9
$DIMAPOST
  1

  9
$DIMALT
 70
    0
  9
$DIMALTD
 70
    3
  9
$DIMALTF
 40
0.03937
  9
$DIMLFAC
 40
1
  9
$DIMTOFL
 70
    1
  9
$DIMTVP
 40
0
  9
$DIMTIX
 70
    0
  9
$DIMSOXD
 70
    0
  9
$DIMSAH
 70
    0
  9
$DIMBLK1
  1

  9
$DIMBLK2
  1

  9
$DIMSTYLE
  2
STANDARD
  9
$DIMCLRD
 70
    0
  9
$DIMCLRE
 70
    0
  9
$DIMCLRT
 70
    0
  9
$DIMTFAC
 40
1
  9
$DIMGAP
 40
0.625
  9
$DIMJUST
 70
    0
  9
$DIMSD1
 70
    0
  9
$DIMSD2
 70
    0
  9
$DIMTOLJ
 70
    0
  9
$DIMTZIN
 70
    8
  9
$DIMALTZ
 70
    0
  9
$DIMALTTZ
 70
    0
  9
$DIMUPT
 70
    0
  9
$DIMDEC
 70
    2
  9
$DIMTDEC
 70
    2
  9
$DIMALTU
 70
    2
  9
$DIMALTTD
 70
    3
  9
$DIMTXSTY
  7
standard
  9
$DIMAUNIT
 70
    0
  9
$DIMADEC
 70
    0
  9
$DIMALTRND
 40
0
  9
$DIMAZIN
 70
    0
  9
$DIMDSEP
 70
   44
  9
$DIMATFIT
 70
    3
  9
$DIMFRAC
 70
    0
  9
$DIMLDRBLK
  1
STANDARD
  9
$DIMLUNIT
 70
    2
  9
$DIMLWD
 70
   -2
  9
$DIMLWE
 70
   -2
  9
$DIMTMOVE
 70
    0
  9
$DIMFXL
 40
1
  9
$DIMFXLON
 70
    0
  9
$DIMJOGANG
 40
0.7854
  9
$DIMTFILL
 70
    0
  9
$DIMTFILLCLR
 70
    0
  9
$DIMARCSYM
 70
    0
  9
$DIMLTYPE
  6

  9
$DIMLTEX1
  6

  9
$DIMLTEX2
  6

  9
$LUNITS
 70
    2
  9
$LUPREC
 70
    4
  9
$SKETCHINC
 40
1
  9
$FILLETRAD
 40
0
  9
$AUNITS
 70
    0
  9
$AUPREC
 70
    2
  9
$MENU
  1
.
  9
$ELEVATION
 40
0
  9
$PELEVATION
 40
0
  9
$THICKNESS
 40
0
  9
$LIMCHECK
 70
    0
  9
$CHAMFERA
 40
0
  9
$CHAMFERB
 40
0
  9
$CHAMFERC
 40
0
  9
$CHAMFERD
 40
0
  9
$SKPOLY
 70
    0
  9
$USRTIMER
 70
    1
  9
$ANGBASE
 50
0
  9
$ANGDIR
 70
    0
  9
$PDMODE
 70
   34
  9
$PDSIZE
 40
0
  9
$PLINEWID
 40
0
  9
$SPLFRAME
 70
    0
  9
$SPLINETYPE
 70
    2
  9
$SPLINESEGS
 70
    8
  9
$HANDSEED
  5
20000
  9
$SURFTAB1
 70
    6
  9
$SURFTAB2
 70
    6
  9
$SURFTYPE
 70
    6
  9
$SURFU
 70
    6
  9
$SURFV
 70
    6
  9
$UCSBASE
  2

  9
$UCSNAME
  2

  9
$UCSORG
 10
0
 20
0
 30
0
  9
$UCSXDIR
 10
1
 20
0
 30
0
  9
$UCSYDIR
 10
0
 20
1
 30
0
  9
$UCSORTHOREF
  2

  9
$UCSORTHOVIEW
 70
    0
  9
$UCSORGTOP
 10
0
 20
0
 30
0
  9
$UCSORGBOTTOM
 10
0
 20
0
 30
0
  9
$UCSORGLEFT
 10
0
 20
0
 30
0
  9
$UCSORGRIGHT
 10
0
 20
0
 30
0
  9
$UCSORGFRONT
 10
0
 20
0
 30
0
  9
$UCSORGBACK
 10
0
 20
0
 30
0
  9
$PUCSBASE
  2

  9
$PUCSNAME
  2

  9
$PUCSORG
 10
0
 20
0
 30
0
  9
$PUCSXDIR
 10
1
 20
0
 30
0
  9
$PUCSYDIR
 10
0
 20
1
 30
0
  9
$PUCSORTHOREF
  2

  9
$PUCSORTHOVIEW
 70
    0
  9
$PUCSORGTOP
 10
0
 20
0
 30
0
  9
$PUCSORGBOTTOM
 10
0
 20
0
 30
0
  9
$PUCSORGLEFT
 10
0
 20
0
 30
0
  9
$PUCSORGRIGHT
 10
0
 20
0
 30
0
  9
$PUCSORGFRONT
 10
0
 20
0
 30
0
  9
$PUCSORGBACK
 10
0
 20
0
 30
0
  9
$USERI1
 70
    0
  9
$USERI2
 70
    0
  9
$USERI3
 70
    0
  9
$USERI4
 70
    0
  9
$USERI5
 70
    0
  9
$USERR1
 40
0
  9
$USERR2
 40
0
  9
$USERR3
 40
0
  9
$USERR4
 40
0
  9
$USERR5
 40
0
  9
$WORLDVIEW
 70
    1
  9
$SHADEDGE
 70
    3
  9
$SHADEDIF
 70
   70
  9
$TILEMODE
 70
    1
  9
$MAXACTVP
 70
   64
  9
$PINSBASE
 10
0
 20
0
 30
0
  9
$PLIMCHECK
 70
    0
  9
$PEXTMIN
 10
0
 20
0
 30
0
  9
$PEXTMAX
 10
0
 20
0
 30
0
  9
$GRIDMODE
 70
    1
  9
$SNAPSTYLE
 70
    0
  9
$GRIDUNIT
 10
0
 20
0
  9
$PLIMMIN
 10
0
 20
0
  9
$PLIMMAX
 10
43.18
 20
55.88
  9
$UNITMODE
 70
    0
  9
$VISRETAIN
 70
    1
  9
$PLINEGEN
 70
    0
  9
$PSLTSCALE
 70
    1
  9
$TREEDEPTH
 70
 3020
  9
$CMLSTYLE
  2
Standard
  9
$CMLJUST
 70
    0
  9
$CMLSCALE
 40
20
  9
$PROXYGRAPHICS
 70
    1
  9
$MEASUREMENT
 70
    1
  9
$CELWEIGHT
370
   -1
  9
$ENDCAPS
280
    0
  9
$JOINSTYLE
280
    0
  9
$LWDISPLAY
290
    0
  9
$INSUNITS
 70
    5
  9
$HYPERLINKBASE
  1

  9
$STYLESHEET
  1

  9
$XEDIT
290
    1
  9
$CEPSNTYPE
380
    0
  9
$PSTYLEMODE
290
    1
  9
$EXTNAMES
290
    1
  9
$PSVPSCALE
 40
1
  9
$OLESTARTUP
290
    0
  9
$SORTENTS
280
  127
  9
$INDEXCTL
280
    0
  9
$HIDETEXT
280
    1
  9
$XCLIPFRAME
290
    0
  9
$HALOGAP
280
    0
  9
$OBSCOLOR
 70
  257
  9
$OBSLTYPE
280
    0
  9
$INTERSECTIONDISPLAY
280
    0
  9
$INTERSECTIONCOLOR
 70
  257
  9
$DIMASSOC
280
    1
  9
$PROJECTNAME
  1

  9
$CAMERADISPLAY
290
    0
  9
$LENSLENGTH
 40
50
  9
$CAMERAHEIGHT
 40
0
  9
$STEPSPERSEC
 40
2
  9
$STEPSIZE
 40
50
  9
$3DDWFPREC
 40
2
  9
$PSOLWIDTH
 40
5
  9
$PSOLHEIGHT
 40
80
  9
$LOFTANG1
 40
1.570796326794897
  9
$LOFTANG2
 40
1.570796326794897
  9
$LOFTMAG1
 40
0
  9
$LOFTMAG2
 40
0
  9
$LOFTPARAM
 70
    7
  9
$LOFTNORMALS
280
    1
  9
$LATITUDE
 40
1
  9
$LONGITUDE
 40
1
  9
$NORTHDIRECTION
 40
0
  9
$TIMEZONE
 70
-8000
  9
$LIGHTGLYPHDISPLAY
280
    1
  9
$TILEMODELIGHTSYNCH
280
    1
  9
$SOLIDHIST
280
    1
  9
$SHOWHIST
280
    1
  9
$DWFFRAME
280
    2
  9
$DGNFRAME
280
    0
  9
$REALWORLDSCALE
290
    1
  9
$INTERFERECOLOR
 62
    1
  9
$CSHADOW
280
    0
  9
$SHADOWPLANELOCATION
 40
0
  0
ENDSEC
  0
SECTION
  2
CLASSES
  0
ENDSEC
  0
SECTION
  2
TABLES
  0
TABLE
  2
VPORT
  5
8
330
0
100
AcDbSymbolTable
 70
    1
  0
VPORT
  5
31
330
2
100
AcDbSymbolTableRecord
100
AcDbViewportTableRecord
  2
*ACTIVE
 70
    0
 10
0
 20
0
 11
1
 21
1
 12
2442941.476916356
 22
1286594.66599626
 13
0
 23
0
 14
10
 24
10
 15
10
 25
10
 16
0
 26
0
 36
1
 17
0
 27
0
 37
0
 40
4879529.399926558
 41
2.001302083333333
 42
50
 43
0
 44
0
 50
0
 51
0
 71
    0
 72
  100
 73
    1
 74
    3
 75
    0
 76
    1
 77
    0
 78
    0
281
    0
 65
    1
110
0
120
0
130
0
111
1
121
0
131
0
112
0
122
1
132
0
 79
    0
146
0
348
10020
 60
    7
 61
    5
292
1
282
    1
141
0
142
0
 63
  250
421
3358443
  0
ENDTAB
  0
TABLE
  2
LTYPE
  5
5
330
0
100
AcDbSymbolTable
 70
    4
  0
LTYPE
  5
14
330
5
100
AcDbSymbolTableRecord
100
AcDbLinetypeTableRecord
  2
ByBlock
 70
    0
  3

 72
   65
 73
    0
 40
0
  0
LTYPE
  5
15
330
5
100
AcDbSymbolTableRecord
100
AcDbLinetypeTableRecord
  2
ByLayer
 70
    0
  3

 72
   65
 73
    0
 40
0
  0
LTYPE
  5
16
330
5
100
AcDbSymbolTableRecord
100
AcDbLinetypeTableRecord
  2
Continuous
 70
    0
  3
Solid line
 72
   65
 73
    0
 40
0
  0
LTYPE
  5
32
330
5
100
AcDbSymbolTableRecord
100
AcDbLinetypeTableRecord
  2
DOT
 70
    0
  3
Dot . . . . . . . . . . . . . . . . . . . . . .
 72
   65
 73
    2
 40
6.35
 49
0
 74
    0
 49
-6.35
 74
    0
  0
LTYPE
  5
33
330
5
100
AcDbSymbolTableRecord
100
AcDbLinetypeTableRecord
  2
DOTTINY
 70
    0
  3
Dot (.15x) .....................................
 72
   65
 73
    2
 40
0.9525
 49
0
 74
    0
 49
-0.9525
 74
    0
  0
LTYPE
  5
34
330
5
100
AcDbSymbolTableRecord
100
AcDbLinetypeTableRecord
  2
DOT2
 70
    0
  3
Dot (.5x) .....................................
 72
   65
 73
    2
 40
3.175
 49
0
 74
    0
 49
-3.175
 74
    0
  0
LTYPE
  5
35
330
5
100
AcDbSymbolTableRecord
100
AcDbLinetypeTableRecord
  2
DOTX2
 70
    0
  3
Dot (2x) .  .  .  .  .  .  .  .  .  .  .  .  .
 72
   65
 73
    2
 40
12.7
 49
0
 74
    0
 49
-12.7
 74
    0
  0
LTYPE
  5
36
330
5
100
AcDbSymbolTableRecord
100
AcDbLinetypeTableRecord
  2
DASHED
 70
    0
  3
Dashed _ _ _ _ _ _ _ _ _ _ _ _ _ _ _ _ _
 72
   65
 73
    2
 40
19.05
 49
12.7
 74
    0
 49
-6.35
 74
    0
  0
LTYPE
  5
37
330
5
100
AcDbSymbolTableRecord
100
AcDbLinetypeTableRecord
  2
DASHEDTINY
 70
    0
  3
Dashed (.15x) _ _ _ _ _ _ _ _ _ _ _ _ _ _ _ _ _
 72
   65
 73
    2
 40
2.8575
 49
1.905
 74
    0
 49
-0.9525
 74
    0
  0
LTYPE
  5
38
330
5
100
AcDbSymbolTableRecord
100
AcDbLinetypeTableRecord
  2
DASHED2
 70
    0
  3
Dashed (.5x) _ _ _ _ _ _ _ _ _ _ _ _ _ _ _ _ _
 72
   65
 73
    2
 40
9.524999999999999
 49
6.35
 74
    0
 49
-3.175
 74
    0
  0
LTYPE
  5
39
330
5
100
AcDbSymbolTableRecord
100
AcDbLinetypeTableRecord
  2
DASHEDX2
 70
    0
  3
Dashed (2x) ____  ____  ____  ____  ____  ___
 72
   65
 73
    2
 40
38.09999999999999
 49
25.4
 74
    0
 49
-12.7
 74
    0
  0
LTYPE
  5
3A
330
5
100
AcDbSymbolTableRecord
100
AcDbLinetypeTableRecord
  2
DASHDOT
 70
    0
  3
Dash dot __ . __ . __ . __ . __ . __ . __ . __
 72
   65
 73
    4
 40
25.4
 49
12.7
 74
    0
 49
-6.35
 74
    0
 49
0
 74
    0
 49
-6.35
 74
    0
  0
LTYPE
  5
3B
330
5
100
AcDbSymbolTableRecord
100
AcDbLinetypeTableRecord
  2
DASHDOTTINY
 70
    0
  3
Dash dot (.15x) _._._._._._._._._._._._._._._.
 72
   65
 73
    4
 40
3.81
 49
1.905
 74
    0
 49
-0.9525
 74
    0
 49
0
 74
    0
 49
-0.9525
 74
    0
  0
LTYPE
  5
3C
330
5
100
AcDbSymbolTableRecord
100
AcDbLinetypeTableRecord
  2
DASHDOT2
 70
    0
  3
Dash dot (.5x) _._._._._._._._._._._._._._._.
 72
   65
 73
    4
 40
12.7
 49
6.35
 74
    0
 49
-3.175
 74
    0
 49
0
 74
    0
 49
-3.175
 74
    0
  0
LTYPE
  5
3D
330
5
100
AcDbSymbolTableRecord
100
AcDbLinetypeTableRecord
  2
DASHDOTX2
 70
    0
  3
Dash dot (2x) ____  .  ____  .  ____  .  ___
 72
   65
 73
    4
 40
50.8
 49
25.4
 74
    0
 49
-12.7
 74
    0
 49
0
 74
    0
 49
-12.7
 74
    0
  0
LTYPE
  5
3E
330
5
100
AcDbSymbolTableRecord
100
AcDbLinetypeTableRecord
  2
DIVIDE
 70
    0
  3
Divide ____ . . ____ . . ____ . . ____ . . ____
 72
   65
 73
    6
 40
31.75
 49
12.7
 74
    0
 49
-6.35
 74
    0
 49
0
 74
    0
 49
-6.35
 74
    0
 49
0
 74
    0
 49
-6.35
 74
    0
  0
LTYPE
  5
3F
330
5
100
AcDbSymbolTableRecord
100
AcDbLinetypeTableRecord
  2
DIVIDETINY
 70
    0
  3
Divide (.15x) __..__..__..__..__..__..__..__.._
 72
   65
 73
    6
 40
4.7625
 49
1.905
 74
    0
 49
-0.9525
 74
    0
 49
0
 74
    0
 49
-0.9525
 74
    0
 49
0
 74
    0
 49
-0.9525
 74
    0
  0
LTYPE
  5
40
330
5
100
AcDbSymbolTableRecord
100
AcDbLinetypeTableRecord
  2
DIVIDE2
 70
    0
  3
Divide (.5x) __..__..__..__..__..__..__..__.._
 72
   65
 73
    6
 40
15.875
 49
6.35
 74
    0
 49
-3.175
 74
    0
 49
0
 74
    0
 49
-3.175
 74
    0
 49
0
 74
    0
 49
-3.175
 74
    0
  0
LTYPE
  5
41
330
5
100
AcDbSymbolTableRecord
100
AcDbLinetypeTableRecord
  2
DIVIDEX2
 70
    0
  3
Divide (2x) ________  .  .  ________  .  .  _
 72
   65
 73
    6
 40
63.5
 49
25.4
 74
    0
 49
-12.7
 74
    0
 49
0
 74
    0
 49
-12.7
 74
    0
 49
0
 74
    0
 49
-12.7
 74
    0
  0
LTYPE
  5
42
330
5
100
AcDbSymbolTableRecord
100
AcDbLinetypeTableRecord
  2
BORDER
 70
    0
  3
Border __ __ . __ __ . __ __ . __ __ . __ __ .
 72
   65
 73
    6
 40
44.45
 49
12.7
 74
    0
 49
-6.35
 74
    0
 49
12.7
 74
    0
 49
-6.35
 74
    0
 49
0
 74
    0
 49
-6.35
 74
    0
  0
LTYPE
  5
43
330
5
100
AcDbSymbolTableRecord
100
AcDbLinetypeTableRecord
  2
BORDERTINY
 70
    0
  3
Border (.15x) __.__.__.__.__.__.__.__.__.__.__.
 72
   65
 73
    6
 40
6.6675
 49
1.905
 74
    0
 49
-0.9525
 74
    0
 49
1.905
 74
    0
 49
-0.9525
 74
    0
 49
0
 74
    0
 49
-0.9525
 74
    0
  0
LTYPE
  5
44
330
5
100
AcDbSymbolTableRecord
100
AcDbLinetypeTableRecord
  2
BORDER2
 70
    0
  3
Border (.5x) __.__.__.__.__.__.__.__.__.__.__.
 72
   65
 73
    6
 40
22.225
 49
6.35
 74
    0
 49
-3.175
 74
    0
 49
6.35
 74
    0
 49
-3.175
 74
    0
 49
0
 74
    0
 49
-3.175
 74
    0
  0
LTYPE
  5
45
330
5
100
AcDbSymbolTableRecord
100
AcDbLinetypeTableRecord
  2
BORDERX2
 70
    0
  3
Border (2x) ____  ____  .  ____  ____  .  ___
 72
   65
 73
    6
 40
88.89999999999999
 49
25.4
 74
    0
 49
-12.7
 74
    0
 49
25.4
 74
    0
 49
-12.7
 74
    0
 49
0
 74
    0
 49
-12.7
 74
    0
  0
LTYPE
  5
46
330
5
100
AcDbSymbolTableRecord
100
AcDbLinetypeTableRecord
  2
CENTER
 70
    0
  3
Center ____ _ ____ _ ____ _ ____ _ ____ _ ____
 72
   65
 73
    4
 40
50.8
 49
31.75
 74
    0
 49
-6.35
 74
    0
 49
6.35
 74
    0
 49
-6.35
 74
    0
  0
LTYPE
  5
47
330
5
100
AcDbSymbolTableRecord
100
AcDbLinetypeTableRecord
  2
CENTERTINY
 70
    0
  3
Center (.15x) ___ _ ___ _ ___ _ ___ _ ___ _ ___
 72
   65
 73
    4
 40
7.62
 49
4.7625
 74
    0
 49
-0.9525
 74
    0
 49
0.9525
 74
    0
 49
-0.9525
 74
    0
  0
LTYPE
  5
48
330
5
100
AcDbSymbolTableRecord
100
AcDbLinetypeTableRecord
  2
CENTER2
 70
    0
  3
Center (.5x) ___ _ ___ _ ___ _ ___ _ ___ _ ___
 72
   65
 73
    4
 40
28.575
 49
19.05
 74
    0
 49
-3.175
 74
    0
 49
3.175
 74
    0
 49
-3.175
 74
    0
  0
LTYPE
  5
49
330
5
100
AcDbSymbolTableRecord
100
AcDbLinetypeTableRecord
  2
CENTERX2
 70
    0
  3
Center (2x) ________  __  ________  __  _____
 72
   65
 73
    4
 40
101.6
 49
63.5
 74
    0
 49
-12.7
 74
    0
 49
12.7
 74
    0
 49
-12.7
 74
    0
  0
ENDTAB
  0
TABLE
  2
LAYER
  5
2
330
0
100
AcDbSymbolTable
 70
    1
  0
LAYER
  5
10
330
2
100
AcDbSymbolTableRecord
100
AcDbLayerTableRecord
  2
0
 70
    1
 62
    7
  6
CONTINUOUS
370
    0
390
F
  0
LAYER
  5
4A
330
2
100
AcDbSymbolTableRecord
100
AcDbLayerTableRecord
  2
noname
 70
    1
 62
    1
  6
CONTINUOUS
370
   90
390
F
  0
LAYER
  5
4B
330
2
100
AcDbSymbolTableRecord
100
AcDbLayerTableRecord
  2
noname1
 70
    1
 62
    4
  6
CONTINUOUS
370
    0
390
F
  0
LAYER
  5
4C
330
2
100
AcDbSymbolTableRecord
100
AcDbLayerTableRecord
  2
noname2
 70
    1
 62
    3
  6
CONTINUOUS
370
    0
390
F
  0
LAYER
  5
4D
330
2
100
AcDbSymbolTableRecord
100
AcDbLayerTableRecord
  2
noname3
 70
    1
 62
    5
  6
CONTINUOUS
370
  211
390
F
  0
LAYER
  5
4E
330
2
100
AcDbSymbolTableRecord
100
AcDbLayerTableRecord
  2
noname4
 70
    1
 62
    6
  6
CONTINUOUS
370
    0
390
F
  0
LAYER
  5
4F
330
2
100
AcDbSymbolTableRecord
100
AcDbLayerTableRecord
  2
noname5
 70
    1
 62
    2
  6
CONTINUOUS
370
    0
390
F
  0
LAYER
  5
50
330
2
100
AcDbSymbolTableRecord
100
AcDbLayerTableRecord
  2
noname6
 70
    1
 62
    2
  6
CONTINUOUS
370
    0
390
F
  0
LAYER
  5
51
330
2
100
AcDbSymbolTableRecord
100
AcDbLayerTableRecord
  2
noname7
 70
    1
 62
    2
  6
CONTINUOUS
370
    0
390
F
  0
LAYER
  5
52
330
2
100
AcDbSymbolTableRecord
100
AcDbLayerTableRecord
  2
noname8
 70
    0
 62
    7
  6
CONTINUOUS
370
    0
390
F
  0
ENDTAB
  0
TABLE
  2
STYLE
  5
3
330
0
100
AcDbSymbolTable
 70
    3
  0
STYLE
  5
53
330
2
100
AcDbSymbolTableRecord
100
AcDbTextStyleTableRecord
  2
Standard
 70
    0
 40
0
 41
1
 50
0
 71
    0
 42
1
  3
txt
  4

  0
ENDTAB
  0
TABLE
  2
VIEW
  5
6
330
0
100
AcDbSymbolTable
 70
    0
  0
ENDTAB
  0
TABLE
  2
UCS
  5
7
330
0
100
AcDbSymbolTable
 70
    0
  0
ENDTAB
  0
TABLE
  2
APPID
  5
9
330
0
100
AcDbSymbolTable
 70
    1
  0
APPID
  5
12
330
9
100
AcDbSymbolTableRecord
100
AcDbRegAppTableRecord
  2
ACAD
 70
    0
  0
APPID
  5
54
330
9
100
AcDbSymbolTableRecord
100
AcDbRegAppTableRecord
  2
LibreCad
 70
    0
  0
ENDTAB
  0
TABLE
  2
DIMSTYLE
  5
A
330
0
100
AcDbSymbolTable
 70
    1
100
AcDbDimStyleTable
 71
    1
  0
DIMSTYLE
105
55
330
A
100
AcDbSymbolTableRecord
100
AcDbDimStyleTableRecord
  2
Standard
 70
    0
 40
2.5
 41
2.5
 42
0.625
 43
0.38
 44
1.25
 45
0
 46
0
 47
0
 48
0
 49
1
140
2.5
141
0.09
142
0
143
25.4
144
1
145
0
146
1
147
0.625
148
0
 71
    0
 72
    0
 73
    0
 74
    1
 75
    0
 76
    0
 77
    0
 78
    8
 79
    0
170
    0
171
    2
172
    0
173
    0
174
    0
175
    0
176
    0
177
    0
178
    0
179
    0
271
    2
272
    4
273
    2
274
    2
275
    0
276
    0
277
    2
278
   44
279
    0
280
    0
281
    0
282
    0
283
    1
284
    0
285
    0
286
    0
288
    0
289
    3
340
standard
341

371
   -2
372
   -2
  0
ENDTAB
  0
TABLE
  2
BLOCK_RECORD
  5
1
330
0
100
AcDbSymbolTable
 70
    2
  0
BLOCK_RECORD
  5
1F
330
1
100
AcDbSymbolTableRecord
100
AcDbBlockTableRecord
  2
*Model_Space
 70
    0
280
    1
281
    0
  0
BLOCK_RECORD
  5
1E
330
1
100
AcDbSymbolTableRecord
100
AcDbBlockTableRecord
  2
*Paper_Space
 70
    0
280
    1
281
    0
  0
ENDTAB
  0
ENDSEC
  0
SECTION
  2
BLOCKS
  0
BLOCK
  5
20
330
1F
100
AcDbEntity
  8
0
100
AcDbBlockBegin
  2
*Model_Space
 70
    0
 10
0
 20
0
 30
0
  3
*Model_Space
  1

  0
ENDBLK
  5
21
330
1F
100
AcDbEntity
  8
0
100
AcDbBlockEnd
  0
BLOCK
  5
1C
330
1B
100
AcDbEntity
  8
0
100
AcDbBlockBegin
  2
*Paper_Space
 70
    0
 10
0
 20
0
 30
0
  3
*Paper_Space
  1

  0
ENDBLK
  5
1D
330
1F
100
AcDbEntity
  8
0
100
AcDbBlockEnd
  0
ENDSEC
  0
SECTION
  2
ENTITIES
  0
CIRCLE
  5
56
100
AcDbEntity
  8
0
  6
ByLayer
 62
  256
370
   -1
100
AcDbCircle
 10
0
 20
0
 40
1000000
  0
CIRCLE
  5
57
100
AcDbEntity
  8
0
  6
ByLayer
 62
  256
370
   -1
100
AcDbCircle
 10
0
 20
0
 40
0
  0
CIRCLE
  5
58
100
AcDbEntity
  8
0
  6
ByLayer
 62
  256
370
   -1
100
AcDbCircle
 10
-866025.4037844387
 20
-500000
 40
1000000
  0
CIRCLE
  5
59
100
AcDbEntity
  8
0
  6
ByLayer
 62
  256
370
   -1
100
AcDbCircle
 10
0
 20
0
 40
0
  0
CIRCLE
  5
5A
100
AcDbEntity
  8
0
  6
ByLayer
 62
  256
370
   -1
100
AcDbCircle
 10
0
 20
0
 40
0
  0
LINE
  5
5B
100
AcDbEntity
  8
0
  6
ByLayer
 62
  256
370
   -1
100
AcDbLine
 10
-866025.4037844387
 20
-500000
 11
-8.731149137020111e-11
 21
-1000000
  0
LINE
  5
5C
100
AcDbEntity
  8
0
  6
ByLayer
 62
  256
370
   -1
100
AcDbLine
 10
-8.731149137020111e-11
 20
-1000000
 11
866025.4037844386
 21
-500000.0000000001
  0
LINE
  5
5D
100
AcDbEntity
  8
0
  6
ByLayer
 62
  256
370
   -1
100
AcDbLine
 10
866025.4037844386
 20
-500000.0000000001
 11
866025.4037844387
 21
500000
  0
LINE
  5
5E
100
AcDbEntity
  8
0
  6
ByLayer
 62
  256
370
   -1
100
AcDbLine
 10
-866025.4037844387
 20
-500000
 11
-866025.4037844386
 21
500000.0000000001
  0
CIRCLE
  5
5F
100
AcDbEntity
  8
0
  6
ByLayer
 62
  256
370
   -1
100
AcDbCircle
 10
866025.4037844386
 20
-499999.9999999999
 40
999999.9999999999
  0
ELLIPSE
  5
60
100
AcDbEntity
  8
0
  6
ByLayer
 62
  256
370
   -1
100
AcDbEllipse
 10
-1.680310434864443e-11
 20
-5.820766091346741e-11
 30
0
 11
1.680310434864443e-11
 21
1800000
 31
0
 40
0.5030769521187454
 41
0
 42
6.283185307179586
  0
LINE
  5
61
100
AcDbEntity
  8
noname
  6
ByLayer
 62
  256
370
   -1
100
AcDbLine
 10
-866025.4037844386
 20
500000
 11
-866025.4037844387
 21
-499999.9999999998
  0
LINE
  5
62
100
AcDbEntity
  8
noname
  6
ByLayer
 62
  256
370
   -1
100
AcDbLine
 10
-866025.4037844387
 20
-499999.9999999998
 11
1.164153218269348e-10
 21
-1000000
  0
LINE
  5
63
100
AcDbEntity
  8
noname
  6
ByLayer
 62
  256
370
   -1
100
AcDbLine
 10
1.164153218269348e-10
 20
-1000000
 11
871210.8036880682
 21
-490909.0909090911
  0
LINE
  5
64
100
AcDbEntity
  8
noname
  6
ByLayer
 62
  256
370
   -1
100
AcDbLine
 10
866025.4037844387
 20
500000
 11
866025.4037844386
 21
-500000.0000000001
  0
ELLIPSE
  5
65
100
AcDbEntity
  8
noname
  6
ByLayer
 62
  256
370
   -1
100
AcDbEllipse
 10
0
 20
400000
 30
0
 11
0
 21
1400000
 31
0
 40
0.6185895741317419
 41
4.78369644516998
 42
1.499488862009606
  0
ARC
  5
66
100
AcDbEntity
  8
noname1
  6
ByLayer
 62
  256
370
   -1
100
AcDbCircle
 10
933012.7018922169
 20
1616025.403784434
 40
2777427.157485453
100
AcDbArc
 50
229.6289166379914
 51
250.3710833620086
  0
ARC
  5
67
100
AcDbEntity
  8
noname1
  6
ByLayer
 62
  256
370
   -1
100
AcDbCircle
 10
-933012.7018922261
 20
1616025.403784448
 40
2777427.15748547
100
AcDbArc
 50
289.6289166379915
 51
310.3710833620085
  0
ARC
  5
68
100
AcDbEntity
  8
noname1
  6
ByLayer
 62
  256
370
   -1
100
AcDbCircle
 10
1940666.419935815
 20
400000.0000000001
 40
2947459.752623965
100
AcDbArc
 50
176.1092029365709
 51
197.77908243856
  0
ARC
  5
69
100
AcDbEntity
  8
noname1
  6
ByLayer
 62
  256
370
   -1
100
AcDbCircle
 10
-1143517.713364929
 20
300000
 40
2164409.43157925
100
AcDbArc
 50
338.5668349213519
 51
7.967185931564638
  0
ARC
  5
6A
100
AcDbEntity
  8
noname1
  6
ByLayer
 62
  256
370
   -1
100
AcDbCircle
 10
3.492459654808044e-10
 20
783333.3333333336
 40
1016666.666666667
100
AcDbArc
 50
349.6111421845304
 51
190.3888578154696
  0
ARC
  5
6B
100
AcDbEntity
  8
noname2
  6
ByLayer
 62
  256
370
   -1
100
AcDbCircle
 10
933012.7018922169
 20
1616025.403784434
 40
2777427.157485453
100
AcDbArc
 50
229.6289166379914
 51
250.3710833620086
  0
ARC
  5
6C
100
AcDbEntity
  8
noname2
  6
ByLayer
 62
  256
370
   -1
100
AcDbCircle
 10
-933012.7018922261
 20
1616025.403784448
 40
2777427.15748547
100
AcDbArc
 50
289.6289166379915
 51
310.3710833620085
  0
ARC
  5
6D
100
AcDbEntity
  8
noname2
  6
ByLayer
 62
  256
370
   -1
100
AcDbCircle
 10
1940666.419935815
 20
400000.0000000001
 40
2947459.752623965
100
AcDbArc
 50
176.1092029365709
 51
197.77908243856
  0
ARC
  5
6E
100
AcDbEntity
  8
noname2
  6
ByLayer
 62
  256
370
   -1
100
AcDbCircle
 10
-1143517.713364929
 20
300000
 40
2164409.43157925
100
AcDbArc
 50
338.5668349213519
 51
7.967185931564638
  0
ARC
  5
6F
100
AcDbEntity
  8
noname2
  6
ByLayer
 62
  256
370
   -1
100
AcDbCircle
 10
3.492459654808044e-10
 20
783333.3333333336
 40
1016666.666666667
100
AcDbArc
 50
349.6111421845304
 51
190.3888578154696
  0
CIRCLE
  5
70
100
AcDbEntity
  8
noname1
  6
ByLayer
 62
  256
370
   -1
100
AcDbCircle
 10
-500000
 20
100000
 40
0
  0
CIRCLE
  5
71
100
AcDbEntity
  8
noname1
  6
ByLayer
 62
  256
370
   -1
100
AcDbCircle
 10
-500000
 20
100000
 40
0
  0
CIRCLE
  5
72
100
AcDbEntity
  8
noname1
  6
ByLayer
 62
  256
370
   -1
100
AcDbCircle
 10
-500000
 20
100000
 40
316227.766016838
  0
CIRCLE
  5
73
100
AcDbEntity
  8
noname1
  6
ByLayer
 62
  256
370
   -1
100
AcDbCircle
 10
500000
 20
100000
 40
300000
  0
LINE
  5
74
100
AcDbEntity
  8
noname1
  6
ByLayer
 62
  256
370
   -1
100
AcDbLine
 10
0
 20
-200000
 11
-100000
 21
-400000
  0
LINE
  5
75
100
AcDbEntity
  8
noname1
  6
ByLayer
 62
  256
370
   -1
100
AcDbLine
 10
-100000
 20
-400000
 11
100000
 21
-400000
  0
LINE
  5
76
100
AcDbEntity
  8
noname1
  6
ByLayer
 62
  256
370
   -1
100
AcDbLine
 10
100000
 20
-400000
 11
0
 21
-200000
  0
ARC
  5
77
100
AcDbEntity
  8
noname1
  6
ByLayer
 62
  256
370
   -1
100
AcDbCircle
 10
0
 20
-550000
 40
250000
100
AcDbArc
 50
216.869897645844
 51
323.130102354156
  0
SPLINE
  5
78
100
AcDbEntity
  8
noname2
  6
ByLayer
 62
  256
370
   -1
100
AcDbSpline
210
0
220
0
230
0
 70
    8
 71
    2
 72
    8
 73
    5
 74
    0
 42
1e-07
 43
1e-07
 40
0
 40
0
 40
0
 40
0.3333333333333333
 40
0.6666666666666666
 40
1
 40
1
 40
1
 10
0
 20
-300000
 30
0
 10
-25056.41057181156
 20
-319041.0210112435
 30
0
 10
-13766.3662386638
 20
-371720.7613382303
 30
0
 10
35413.24900127191
 20
-332834.0254422445
 30
0
 10
0
 20
-300000
 30
0
  0
SPLINE
  5
79
100
AcDbEntity
  8
noname2
  6
ByLayer
 62
  256
370
   -1
100
AcDbSpline
210
0
220
0
230
0
 70
    8
 71
    2
 72
    6
 73
    3
 74
    0
 42
1e-07
 43
1e-07
 40
0
 40
0
 40
0
 40
1
 40
1
 40
1
 10
-100000
 20
-700000
 30
0
 10
0
 20
-720000
 30
0
 10
100000
 20
-700000
 30
0
  0
SPLINE
  5
7A
100
AcDbEntity
  8
noname2
  6
ByLayer
 62
  256
370
   -1
100
AcDbSpline
210
0
220
0
230
0
 70
    8
 71
    2
 72
    6
 73
    3
 74
    0
 42
1e-07
 43
1e-07
 40
0
 40
0
 40
0
 40
1
 40
1
 40
1
 10
100000
 20
-700000
 30
0
 10
110000
 20
-720000
 30
0
 10
120000
 20
-700000
 30
0
  0
SPLINE
  5
7B
100
AcDbEntity
  8
noname2
  6
ByLayer
 62
  256
370
   -1
100
AcDbSpline
210
0
220
0
230
0
 70
    8
 71
    2
 72
    6
 73
    3
 74
    0
 42
1e-07
 43
1e-07
 40
0
 40
0
 40
0
 40
1
 40
1
 40
1
 10
-100000
 20
-700000
 30
0
 10
-110000
 20
-720000
 30
0
 10
-120000
 20
-700000
 30
0
  0
SPLINE
  5
7C
100
AcDbEntity
  8
noname2
  6
ByLayer
 62
  256
370
   -1
100
AcDbSpline
210
0
220
0
230
0
 70
    8
 71
    2
 72
    8
 73
    5
 74
    0
 42
1e-07
 43
1e-07
 40
0
 40
0
 40
0
 40
0.3333333333333333
 40
0.6666666666666666
 40
1
 40
1
 40
1
 10
100000
 20
100000
 30
0
 10
204160.2057774602
 20
-39241.87032754111
 30
0
 10
596581.8344615118
 20
-156940.6715288092
 30
0
 10
800683.6331076976
 20
111388.1343057618
 30
0
 10
900000
 20
200000
 30
0
  0
SPLINE
  5
7D
100
AcDbEntity
  8
noname2
  6
ByLayer
 62
  256
370
   -1
100
AcDbSpline
210
0
220
0
230
0
 70
    8
 71
    2
 72
    6
 73
    3
 74
    0
 42
1e-07
 43
1e-07
 40
0
 40
0
 40
0
 40
1
 40
1
 40
1
 10
100000
 20
100000
 30
0
 10
435355.3390593274
 20
476776.6952966369
 30
0
 10
900000
 20
200000
 30
0
  0
SPLINE
  5
7E
100
AcDbEntity
  8
noname2
  6
ByLayer
 62
  256
370
   -1
100
AcDbSpline
210
0
220
0
230
0
 70
    8
 71
    2
 72
    6
 73
    3
 74
    0
 42
1e-07
 43
1e-07
 40
0
 40
0
 40
0
 40
1
 40
1
 40
1
 10
100000
 20
400000
 30
0
 10
376776.6952966369
 20
747487.3734152915
 30
0
 10
900000
 20
500000
 30
0
  0
SPLINE
  5
7F
100
AcDbEntity
  8
noname2
  6
ByLayer
 62
  256
370
   -1
100
AcDbSpline
210
0
220
0
230
0
 70
    8
 71
    2
 72
    6
 73
    3
 74
    0
 42
1e-07
 43
1e-07
 40
0
 40
0
 40
0
 40
1
 40
1
 40
1
 10
100000
 20
200000
 30
0
 10
244721.3595499959
 20
389442.7190999916
 30
0
 10
500000
 20
400000
 30
0
  0
CIRCLE
  5
80
100
AcDbEntity
  8
noname2
  6
ByLayer
 62
  256
370
   -1
100
AcDbCircle
 10
500000
 20
100000
 40
250000
  0
CIRCLE
  5
81
100
AcDbEntity
  8
noname2
  6
ByLayer
 62
  256
370
   -1
100
AcDbCircle
 10
500000
 20
100000
 40
100000
  0
CIRCLE
  5
82
100
AcDbEntity
  8
noname2
  6
ByLayer
 62
  256
370
   -1
100
AcDbCircle
 10
500000
 20
100000
 40
160000
  0
LINE
  5
83
100
AcDbEntity
  8
noname2
  6
ByLayer
 62
  256
370
   -1
100
AcDbLine
 10
386862.9150101524
 20
213137.0849898476
 11
613137.0849898476
 21
-13137.08498984759
  0
LINE
  5
84
100
AcDbEntity
  8
noname2
  6
ByLayer
 62
  256
370
   -1
100
AcDbLine
 10
386862.9150101524
 20
-13137.08498984759
 11
613137.0849898476
 21
213137.0849898476
  0
LINE
  5
85
100
AcDbEntity
  8
noname2
  6
ByLayer
 62
  256
370
   -1
100
AcDbLine
 10
-200000
 20
100000
 11
-700000
 21
-100000
  0
LINE
  5
86
100
AcDbEntity
  8
noname2
  6
ByLayer
 62
  256
370
   -1
100
AcDbLine
 10
-197825.8916004135
 20
108113.883008419
 11
-700000
 21
400000
  0
SPLINE
  5
87
100
AcDbEntity
  8
noname1
  6
ByLayer
 62
  256
370
   -1
100
AcDbSpline
210
0
220
0
230
0
 70
    8
 71
    2
 72
    6
 73
    3
 74
    0
 42
1e-07
 43
1e-07
 40
0
 40
0
 40
0
 40
1
 40
1
 40
1
 10
1094704.790911304
 20
2025485.943714412
 30
0
 10
1214919.53384235
 20
1542459.507702895
 30
0
 10
938421.4310110665
 20
1139158.966003425
 30
0
  0
SPLINE
  5
88
100
AcDbEntity
  8
noname1
  6
ByLayer
 62
  256
370
   -1
100
AcDbSpline
210
0
220
0
230
0
 70
    8
 71
    2
 72
    6
 73
    3
 74
    0
 42
1e-07
 43
1e-07
 40
0
 40
0
 40
0
 40
1
 40
1
 40
1
 10
1094704.790911304
 20
2025485.943714412
 30
0
 10
895635.7200763926
 20
1765916.285493423
 30
0
 10
613957.6008729554
 20
1602541.338275081
 30
0
  0
SPLINE
  5
89
100
AcDbEntity
  8
noname1
  6
ByLayer
 62
  256
370
   -1
100
AcDbSpline
210
0
220
0
230
0
 70
    8
 71
    2
 72
    6
 73
    3
 74
    0
 42
1e-07
 43
1e-07
 40
0
 40
0
 40
0
 40
1
 40
1
 40
1
 10
1094704.790911304
 20
2025485.943714412
 30
0
 10
1214919.53384235
 20
1542459.507702895
 30
0
 10
938421.4310110665
 20
1139158.966003425
 30
0
  0
SPLINE
  5
8A
100
AcDbEntity
  8
noname1
  6
ByLayer
 62
  256
370
   -1
100
AcDbSpline
210
0
220
0
230
0
 70
    8
 71
    2
 72
    6
 73
    3
 74
    0
 42
1e-07
 43
1e-07
 40
0
 40
0
 40
0
 40
1
 40
1
 40
1
 10
1094704.790911304
 20
2025485.943714412
 30
0
 10
895635.7200763926
 20
1765916.285493423
 30
0
 10
613957.6008729554
 20
1602541.338275081
 30
0
  0
SPLINE
  5
8B
100
AcDbEntity
  8
noname1
  6
ByLayer
 62
  256
370
   -1
100
AcDbSpline
210
0
220
0
230
0
 70
    8
 71
    2
 72
    6
 73
    3
 74
    0
 42
1e-07
 43
1e-07
 40
0
 40
0
 40
0
 40
1
 40
1
 40
1
 10
1094704.790911304
 20
2025485.943714412
 30
0
 10
1214919.53384235
 20
1542459.507702895
 30
0
 10
938421.4310110665
 20
1139158.966003425
 30
0
  0
SPLINE
  5
8C
100
AcDbEntity
  8
noname1
  6
ByLayer
 62
  256
370
   -1
100
AcDbSpline
210
0
220
0
230
0
 70
    8
 71
    2
 72
    6
 73
    3
 74
    0
 42
1e-07
 43
1e-07
 40
0
 40
0
 40
0
 40
1
 40
1
 40
1
 10
1094704.790911304
 20
2025485.943714412
 30
0
 10
895635.7200763926
 20
1765916.285493423
 30
0
 10
613957.6008729554
 20
1602541.338275081
 30
0
  0
LINE
  5
8D
100
AcDbEntity
  8
noname1
  6
ByLayer
 62
  256
370
   -1
100
AcDbLine
 10
335880.092735986
 20
1753116.56687638
 11
1094704.790911304
 21
2025485.943714412
  0
SPLINE
  5
8E
100
AcDbEntity
  8
noname1
  6
ByLayer
 62
  256
370
   -1
100
AcDbSpline
210
0
220
0
230
0
 70
    8
 71
    2
 72
    6
 73
    3
 74
    0
 42
1e-07
 43
1e-07
 40
0
 40
0
 40
0
 40
1
 40
1
 40
1
 10
1094704.790911304
 20
2025485.943714412
 30
0
 10
1214919.53384235
 20
1542459.507702895
 30
0
 10
938421.4310110665
 20
1139158.966003425
 30
0
  0
SPLINE
  5
8F
100
AcDbEntity
  8
noname1
  6
ByLayer
 62
  256
370
   -1
100
AcDbSpline
210
0
220
0
230
0
 70
    8
 71
    2
 72
    6
 73
    3
 74
    0
 42
1e-07
 43
1e-07
 40
0
 40
0
 40
0
 40
1
 40
1
 40
1
 10
1094704.790911304
 20
2025485.943714412
 30
0
 10
895635.7200763926
 20
1765916.285493423
 30
0
 10
613957.6008729554
 20
1602541.338275081
 30
0
  0
SPLINE
  5
90
100
AcDbEntity
  8
noname1
  6
ByLayer
 62
  256
370
   -1
100
AcDbSpline
210
0
220
0
230
0
 70
    8
 71
    2
 72
    6
 73
    3
 74
    0
 42
1e-07
 43
1e-07
 40
0
 40
0
 40
0
 40
1
 40
1
 40
1
 10
-1094704.790911304
 20
2025485.943714412
 30
0
 10
-1214919.53384235
 20
1542459.507702895
 30
0
 10
-938421.4310110665
 20
1139158.966003425
 30
0
  0
SPLINE
  5
91
100
AcDbEntity
  8
noname1
  6
ByLayer
 62
  256
370
   -1
100
AcDbSpline
210
0
220
0
230
0
 70
    8
 71
    2
 72
    6
 73
    3
 74
    0
 42
1e-07
 43
1e-07
 40
0
 40
0
 40
0
 40
1
 40
1
 40
1
 10
-1094704.790911304
 20
2025485.943714412
 30
0
 10
-895635.7200763926
 20
1765916.285493423
 30
0
 10
-613957.6008729554
 20
1602541.338275081
 30
0
  0
SPLINE
  5
92
100
AcDbEntity
  8
noname1
  6
ByLayer
 62
  256
370
   -1
100
AcDbSpline
210
0
220
0
230
0
 70
    8
 71
    2
 72
    6
 73
    3
 74
    0
 42
1e-07
 43
1e-07
 40
0
 40
0
 40
0
 40
1
 40
1
 40
1
 10
-1094704.790911304
 20
2025485.943714412
 30
0
 10
-1214919.53384235
 20
1542459.507702895
 30
0
 10
-938421.4310110665
 20
1139158.966003425
 30
0
  0
SPLINE
  5
93
100
AcDbEntity
  8
noname1
  6
ByLayer
 62
  256
370
   -1
100
AcDbSpline
210
0
220
0
230
0
 70
    8
 71
    2
 72
    6
 73
    3
 74
    0
 42
1e-07
 43
1e-07
 40
0
 40
0
 40
0
 40
1
 40
1
 40
1
 10
-1094704.790911304
 20
2025485.943714412
 30
0
 10
-895635.7200763926
 20
1765916.285493423
 30
0
 10
-613957.6008729554
 20
1602541.338275081
 30
0
  0
SPLINE
  5
94
100
AcDbEntity
  8
noname1
  6
ByLayer
 62
  256
370
   -1
100
AcDbSpline
210
0
220
0
230
0
 70
    8
 71
    2
 72
    6
 73
    3
 74
    0
 42
1e-07
 43
1e-07
 40
0
 40
0
 40
0
 40
1
 40
1
 40
1
 10
-1094704.790911304
 20
2025485.943714412
 30
0
 10
-1214919.53384235
 20
1542459.507702895
 30
0
 10
-938421.4310110665
 20
1139158.966003425
 30
0
  0
SPLINE
  5
95
100
AcDbEntity
  8
noname1
  6
ByLayer
 62
  256
370
   -1
100
AcDbSpline
210
0
220
0
230
0
 70
    8
 71
    2
 72
    6
 73
    3
 74
    0
 42
1e-07
 43
1e-07
 40
0
 40
0
 40
0
 40
1
 40
1
 40
1
 10
-1094704.790911304
 20
2025485.943714412
 30
0
 10
-895635.7200763926
 20
1765916.285493423
 30
0
 10
-613957.6008729554
 20
1602541.338275081
 30
0
  0
LINE
  5
96
100
AcDbEntity
  8
noname1
  6
ByLayer
 62
  256
370
   -1
100
AcDbLine
 10
-335880.092735986
 20
1753116.56687638
 11
-1094704.790911304
 21
2025485.943714412
  0
SPLINE
  5
97
100
AcDbEntity
  8
noname1
  6
ByLayer
 62
  256
370
   -1
100
AcDbSpline
210
0
220
0
230
0
 70
    8
 71
    2
 72
    6
 73
    3
 74
    0
 42
1e-07
 43
1e-07
 40
0
 40
0
 40
0
 40
1
 40
1
 40
1
 10
-1094704.790911304
 20
2025485.943714412
 30
0
 10
-1214919.53384235
 20
1542459.507702895
 30
0
 10
-938421.4310110665
 20
1139158.966003425
 30
0
  0
SPLINE
  5
98
100
AcDbEntity
  8
noname1
  6
ByLayer
 62
  256
370
   -1
100
AcDbSpline
210
0
220
0
230
0
 70
    8
 71
    2
 72
    6
 73
    3
 74
    0
 42
1e-07
 43
1e-07
 40
0
 40
0
 40
0
 40
1
 40
1
 40
1
 10
-1094704.790911304
 20
2025485.943714412
 30
0
 10
-895635.7200763926
 20
1765916.285493423
 30
0
 10
-613957.6008729554
 20
1602541.338275081
 30
0
  0
SPLINE
  5
99
100
AcDbEntity
  8
noname2
  6
ByLayer
 62
  256
370
   -1
100
AcDbSpline
210
0
220
0
230
0
 70
    8
 71
    2
 72
    6
 73
    3
 74
    0
 42
1e-07
 43
1e-07
 40
0
 40
0
 40
0
 40
1
 40
1
 40
1
 10
1094704.790911304
 20
2025485.943714412
 30
0
 10
1214919.53384235
 20
1542459.507702895
 30
0
 10
938421.4310110665
 20
1139158.966003425
 30
0
  0
SPLINE
  5
9A
100
AcDbEntity
  8
noname2
  6
ByLayer
 62
  256
370
   -1
100
AcDbSpline
210
0
220
0
230
0
 70
    8
 71
    2
 72
    6
 73
    3
 74
    0
 42
1e-07
 43
1e-07
 40
0
 40
0
 40
0
 40
1
 40
1
 40
1
 10
1094704.790911304
 20
2025485.943714412
 30
0
 10
895635.7200763926
 20
1765916.285493423
 30
0
 10
613957.6008729554
 20
1602541.338275081
 30
0
  0
SPLINE
  5
9B
100
AcDbEntity
  8
noname2
  6
ByLayer
 62
  256
370
   -1
100
AcDbSpline
210
0
220
0
230
0
 70
    8
 71
    2
 72
    6
 73
    3
 74
    0
 42
1e-07
 43
1e-07
 40
0
 40
0
 40
0
 40
1
 40
1
 40
1
 10
1094704.790911304
 20
2025485.943714412
 30
0
 10
1214919.53384235
 20
1542459.507702895
 30
0
 10
938421.4310110665
 20
1139158.966003425
 30
0
  0
SPLINE
  5
9C
100
AcDbEntity
  8
noname2
  6
ByLayer
 62
  256
370
   -1
100
AcDbSpline
210
0
220
0
230
0
 70
    8
 71
    2
 72
    6
 73
    3
 74
    0
 42
1e-07
 43
1e-07
 40
0
 40
0
 40
0
 40
1
 40
1
 40
1
 10
1094704.790911304
 20
2025485.943714412
 30
0
 10
895635.7200763926
 20
1765916.285493423
 30
0
 10
613957.6008729554
 20
1602541.338275081
 30
0
  0
SPLINE
  5
9D
100
AcDbEntity
  8
noname2
  6
ByLayer
 62
  256
370
   -1
100
AcDbSpline
210
0
220
0
230
0
 70
    8
 71
    2
 72
    6
 73
    3
 74
    0
 42
1e-07
 43
1e-07
 40
0
 40
0
 40
0
 40
1
 40
1
 40
1
 10
1094704.790911304
 20
2025485.943714412
 30
0
 10
1214919.53384235
 20
1542459.507702895
 30
0
 10
938421.4310110665
 20
1139158.966003425
 30
0
  0
SPLINE
  5
9E
100
AcDbEntity
  8
noname2
  6
ByLayer
 62
  256
370
   -1
100
AcDbSpline
210
0
220
0
230
0
 70
    8
 71
    2
 72
    6
 73
    3
 74
    0
 42
1e-07
 43
1e-07
 40
0
 40
0
 40
0
 40
1
 40
1
 40
1
 10
1094704.790911304
 20
2025485.943714412
 30
0
 10
895635.7200763926
 20
1765916.285493423
 30
0
 10
613957.6008729554
 20
1602541.338275081
 30
0
  0
LINE
  5
9F
100
AcDbEntity
  8
noname2
  6
ByLayer
 62
  256
370
   -1
100
AcDbLine
 10
335880.092735986
 20
1753116.56687638
 11
1094704.790911304
 21
2025485.943714412
  0
SPLINE
  5
A0
100
AcDbEntity
  8
noname2
  6
ByLayer
 62
  256
370
   -1
100
AcDbSpline
210
0
220
0
230
0
 70
    8
 71
    2
 72
    6
 73
    3
 74
    0
 42
1e-07
 43
1e-07
 40
0
 40
0
 40
0
 40
1
 40
1
 40
1
 10
1094704.790911304
 20
2025485.943714412
 30
0
 10
1214919.53384235
 20
1542459.507702895
 30
0
 10
938421.4310110665
 20
1139158.966003425
 30
0
  0
SPLINE
  5
A1
100
AcDbEntity
  8
noname2
  6
ByLayer
 62
  256
370
   -1
100
AcDbSpline
210
0
220
0
230
0
 70
    8
 71
    2
 72
    6
 73
    3
 74
    0
 42
1e-07
 43
1e-07
 40
0
 40
0
 40
0
 40
1
 40
1
 40
1
 10
1094704.790911304
 20
2025485.943714412
 30
0
 10
895635.7200763926
 20
1765916.285493423
 30
0
 10
613957.6008729554
 20
1602541.338275081
 30
0
  0
SPLINE
  5
A2
100
AcDbEntity
  8
noname2
  6
ByLayer
 62
  256
370
   -1
100
AcDbSpline
210
0
220
0
230
0
 70
    8
 71
    2
 72
    6
 73
    3
 74
    0
 42
1e-07
 43
1e-07
 40
0
 40
0
 40
0
 40
1
 40
1
 40
1
 10
-1094704.790911304
 20
2025485.943714412
 30
0
 10
-1214919.53384235
 20
1542459.507702895
 30
0
 10
-938421.4310110665
 20
1139158.966003425
 30
0
  0
SPLINE
  5
A3
100
AcDbEntity
  8
noname2
  6
ByLayer
 62
  256
370
   -1
100
AcDbSpline
210
0
220
0
230
0
 70
    8
 71
    2
 72
    6
 73
    3
 74
    0
 42
1e-07
 43
1e-07
 40
0
 40
0
 40
0
 40
1
 40
1
 40
1
 10
-1094704.790911304
 20
2025485.943714412
 30
0
 10
-895635.7200763926
 20
1765916.285493423
 30
0
 10
-613957.6008729554
 20
1602541.338275081
 30
0
  0
SPLINE
  5
A4
100
AcDbEntity
  8
noname2
  6
ByLayer
 62
  256
370
   -1
100
AcDbSpline
210
0
220
0
230
0
 70
    8
 71
    2
 72
    6
 73
    3
 74
    0
 42
1e-07
 43
1e-07
 40
0
 40
0
 40
0
 40
1
 40
1
 40
1
 10
-1094704.790911304
 20
2025485.943714412
 30
0
 10
-1214919.53384235
 20
1542459.507702895
 30
0
 10
-938421.4310110665
 20
1139158.966003425
 30
0
  0
SPLINE
  5
A5
100
AcDbEntity
  8
noname2
  6
ByLayer
 62
  256
370
   -1
100
AcDbSpline
210
0
220
0
230
0
 70
    8
 71
    2
 72
    6
 73
    3
 74
    0
 42
1e-07
 43
1e-07
 40
0
 40
0
 40
0
 40
1
 40
1
 40
1
 10
-1094704.790911304
 20
2025485.943714412
 30
0
 10
-895635.7200763926
 20
1765916.285493423
 30
0
 10
-613957.6008729554
 20
1602541.338275081
 30
0
  0
SPLINE
  5
A6
100
AcDbEntity
  8
noname2
  6
ByLayer
 62
  256
370
   -1
100
AcDbSpline
210
0
220
0
230
0
 70
    8
 71
    2
 72
    6
 73
    3
 74
    0
 42
1e-07
 43
1e-07
 40
0
 40
0
 40
0
 40
1
 40
1
 40
1
 10
-1094704.790911304
 20
2025485.943714412
 30
0
 10
-1214919.53384235
 20
1542459.507702895
 30
0
 10
-938421.4310110665
 20
1139158.966003425
 30
0
  0
SPLINE
  5
A7
100
AcDbEntity
  8
noname2
  6
ByLayer
 62
  256
370
   -1
100
AcDbSpline
210
0
220
0
230
0
 70
    8
 71
    2
 72
    6
 73
    3
 74
    0
 42
1e-07
 43
1e-07
 40
0
 40
0
 40
0
 40
1
 40
1
 40
1
 10
-1094704.790911304
 20
2025485.943714412
 30
0
 10
-895635.7200763926
 20
1765916.285493423
 30
0
 10
-613957.6008729554
 20
1602541.338275081
 30
0
  0
LINE
  5
A8
100
AcDbEntity
  8
noname2
  6
ByLayer
 62
  256
370
   -1
100
AcDbLine
 10
-335880.092735986
 20
1753116.56687638
 11
-1094704.790911304
 21
2025485.943714412
  0
SPLINE
  5
A9
100
AcDbEntity
  8
noname2
  6
ByLayer
 62
  256
370
   -1
100
AcDbSpline
210
0
220
0
230
0
 70
    8
 71
    2
 72
    6
 73
    3
 74
    0
 42
1e-07
 43
1e-07
 40
0
 40
0
 40
0
 40
1
 40
1
 40
1
 10
-1094704.790911304
 20
2025485.943714412
 30
0
 10
-1214919.53384235
 20
1542459.507702895
 30
0
 10
-938421.4310110665
 20
1139158.966003425
 30
0
  0
SPLINE
  5
AA
100
AcDbEntity
  8
noname2
  6
ByLayer
 62
  256
370
   -1
100
AcDbSpline
210
0
220
0
230
0
 70
    8
 71
    2
 72
    6
 73
    3
 74
    0
 42
1e-07
 43
1e-07
 40
0
 40
0
 40
0
 40
1
 40
1
 40
1
 10
-1094704.790911304
 20
2025485.943714412
 30
0
 10
-895635.7200763926
 20
1765916.285493423
 30
0
 10
-613957.6008729554
 20
1602541.338275081
 30
0
  0
SPLINE
  5
AB
100
AcDbEntity
  8
noname4
  6
ByLayer
 62
  256
370
   -1
100
AcDbSpline
210
0
220
0
230
0
 70
    8
 71
    2
 72
    7
 73
    4
 74
    0
 42
1e-07
 43
1e-07
 40
0
 40
0
 40
0
 40
0.5
 40
1
 40
1
 40
1
 10
-335880.092735986
 20
1753116.56687638
 30
0
 10
-594132.0197649909
 20
1664465.075225759
 30
0
 10
-1082533.875383268
 20
1032540.308234989
 30
0
 10
-1000000
 20
400000
 30
0
  0
SPLINE
  5
AC
100
AcDbEntity
  8
noname4
  6
ByLayer
 62
  256
370
   -1
100
AcDbSpline
210
0
220
0
230
0
 70
    8
 71
    2
 72
    6
 73
    3
 74
    0
 42
1e-07
 43
1e-07
 40
0
 40
0
 40
0
 40
1
 40
1
 40
1
 10
-1006328.824422671
 20
452326.1222200695
 30
0
 10
-967399.5642137437
 20
669681.593163869
 30
0
 10
-800000
 20
800000
 30
0
  0
SPLINE
  5
AD
100
AcDbEntity
  8
noname4
  6
ByLayer
 62
  256
370
   -1
100
AcDbSpline
210
0
220
0
230
0
 70
    8
 71
    2
 72
    6
 73
    3
 74
    0
 42
1e-07
 43
1e-07
 40
0
 40
0
 40
0
 40
1
 40
1
 40
1
 10
-1100000
 20
1400000
 30
0
 10
-1405548.047910945
 20
641469.7392755847
 30
0
 10
-1200000
 20
-200000
 30
0
  0
SPLINE
  5
AE
100
AcDbEntity
  8
noname4
  6
ByLayer
 62
  256
370
   -1
100
AcDbSpline
210
0
220
0
230
0
 70
    8
 71
    2
 72
    6
 73
    3
 74
    0
 42
1e-07
 43
1e-07
 40
0
 40
0
 40
0
 40
1
 40
1
 40
1
 10
-1200000
 20
-200000
 30
0
 10
-1236380.34375545
 20
160633.9062590832
 30
0
 10
-1100000
 20
500000
 30
0
  0
SPLINE
  5
AF
100
AcDbEntity
  8
noname4
  6
ByLayer
 62
  256
370
   -1
100
AcDbSpline
210
0
220
0
230
0
 70
    8
 71
    2
 72
    6
 73
    3
 74
    0
 42
1e-07
 43
1e-07
 40
0
 40
0
 40
0
 40
1
 40
1
 40
1
 10
-1100000
 20
500000
 30
0
 10
-1163245.553203368
 20
131622.7766016837
 30
0
 10
-1000000
 20
-200000
 30
0
  0
SPLINE
  5
B0
100
AcDbEntity
  8
noname4
  6
ByLayer
 62
  256
370
   -1
100
AcDbSpline
210
0
220
0
230
0
 70
    8
 71
    2
 72
    6
 73
    3
 74
    0
 42
1e-07
 43
1e-07
 40
0
 40
0
 40
0
 40
1
 40
1
 40
1
 10
-1000000
 20
-200000
 30
0
 10
-1140140.03125798
 20
98965.26715327562
 30
0
 10
-1000000
 20
400000
 30
0
  0
SPLINE
  5
B1
100
AcDbEntity
  8
noname4
  6
ByLayer
 62
  256
370
   -1
100
AcDbSpline
210
0
220
0
230
0
 70
    8
 71
    2
 72
    6
 73
    3
 74
    0
 42
1e-07
 43
1e-07
 40
0
 40
0
 40
0
 40
1
 40
1
 40
1
 10
-500000
 20
1000000
 30
0
 10
-684188.6116991581
 20
947434.1649025256
 30
0
 10
-800000
 20
800000
 30
0
  0
SPLINE
  5
B2
100
AcDbEntity
  8
noname4
  6
ByLayer
 62
  256
370
   -1
100
AcDbSpline
210
0
220
0
230
0
 70
    8
 71
    2
 72
    6
 73
    3
 74
    0
 42
1e-07
 43
1e-07
 40
0
 40
0
 40
0
 40
1
 40
1
 40
1
 10
-500000
 20
1000000
 30
0
 10
-786386.2712750608
 20
845288.6286345961
 30
0
 10
-730000
 20
470000
 30
0
  0
SPLINE
  5
B3
100
AcDbEntity
  8
noname4
  6
ByLayer
 62
  256
370
   -1
100
AcDbSpline
210
0
220
0
230
0
 70
    8
 71
    2
 72
    7
 73
    4
 74
    0
 42
1e-07
 43
1e-07
 40
0
 40
0
 40
0
 40
0.5
 40
1
 40
1
 40
1
 10
-730000
 20
470000
 30
0
 10
-722866.3596447689
 20
526345.416487322
 30
0
 10
-694473.4624147027
 20
757297.3482926899
 30
0
 10
-500000
 20
980000
 30
0
  0
SPLINE
  5
B4
100
AcDbEntity
  8
noname4
  6
ByLayer
 62
  256
370
   -1
100
AcDbSpline
210
0
220
0
230
0
 70
    8
 71
    2
 72
    6
 73
    3
 74
    0
 42
1e-07
 43
1e-07
 40
0
 40
0
 40
0
 40
1
 40
1
 40
1
 10
-1100000
 20
1400000
 30
0
 10
-1121114.561800017
 20
889442.7190999921
 30
0
 10
-1500000
 20
600000
 30
0
  0
SPLINE
  5
B5
100
AcDbEntity
  8
noname4
  6
ByLayer
 62
  256
370
   -1
100
AcDbSpline
210
0
220
0
230
0
 70
    8
 71
    2
 72
    6
 73
    3
 74
    0
 42
1e-07
 43
1e-07
 40
0
 40
0
 40
0
 40
1
 40
1
 40
1
 10
-1500000
 20
600000
 30
0
 10
-1300000
 20
1000000
 30
0
 10
-1100000
 20
1400000
 30
0
  0
SPLINE
  5
B6
100
AcDbEntity
  8
noname4
  6
ByLayer
 62
  256
370
   -1
100
AcDbSpline
210
0
220
0
230
0
 70
    8
 71
    2
 72
    6
 73
    3
 74
    0
 42
1e-07
 43
1e-07
 40
0
 40
0
 40
0
 40
1
 40
1
 40
1
 10
-500000
 20
980000
 30
0
 10
-693864.9762241496
 20
483361.3672028388
 30
0
 10
0
 20
200000
 30
0
  0
SPLINE
  5
B7
100
AcDbEntity
  8
noname5
  6
ByLayer
 62
  256
370
   -1
100
AcDbSpline
210
0
220
0
230
0
 70
    8
 71
    2
 72
    6
 73
    3
 74
    0
 42
1e-07
 43
1e-07
 40
0
 40
0
 40
0
 40
1
 40
1
 40
1
 10
-500000
 20
400000
 30
0
 10
-603429.9837830389
 20
674450.673491456
 30
0
 10
-480000
 20
970000
 30
0
  0
SPLINE
  5
B8
100
AcDbEntity
  8
noname5
  6
ByLayer
 62
  256
370
   -1
100
AcDbSpline
210
0
220
0
230
0
 70
    8
 71
    2
 72
    6
 73
    3
 74
    0
 42
1e-07
 43
1e-07
 40
0
 40
0
 40
0
 40
1
 40
1
 40
1
 10
-390000
 20
690000
 30
0
 10
-279294.6336026709
 20
542208.4911897426
 30
0
 10
-340000
 20
350000
 30
0
  0
SPLINE
  5
B9
100
AcDbEntity
  8
noname5
  6
ByLayer
 62
  256
370
   -1
100
AcDbSpline
210
0
220
0
230
0
 70
    8
 71
    2
 72
    6
 73
    3
 74
    0
 42
1e-07
 43
1e-07
 40
0
 40
0
 40
0
 40
1
 40
1
 40
1
 10
-340000
 20
350000
 30
0
 10
-228160.0695312413
 20
457784.2918987843
 30
0
 10
-300000
 20
630000
 30
0
  0
SPLINE
  5
BA
100
AcDbEntity
  8
noname5
  6
ByLayer
 62
  256
370
   -1
100
AcDbSpline
210
0
220
0
230
0
 70
    8
 71
    2
 72
    6
 73
    3
 74
    0
 42
1e-07
 43
1e-07
 40
0
 40
0
 40
0
 40
1
 40
1
 40
1
 10
-300000
 20
630000
 30
0
 10
-228418.8611699158
 20
447822.4186072216
 30
0
 10
-60000
 20
340000
 30
0
  0
SPLINE
  5
BB
100
AcDbEntity
  8
noname5
  6
ByLayer
 62
  256
370
   -1
100
AcDbSpline
210
0
220
0
230
0
 70
    8
 71
    2
 72
    6
 73
    3
 74
    0
 42
1e-07
 43
1e-07
 40
0
 40
0
 40
0
 40
1
 40
1
 40
1
 10
-60000
 20
340000
 30
0
 10
-155470.019622523
 20
447149.5166791446
 30
0
 10
-100000
 20
600000
 30
0
  0
SPLINE
  5
BC
100
AcDbEntity
  8
noname4
  6
ByLayer
 62
  256
370
   -1
100
AcDbSpline
210
0
220
0
230
0
 70
    8
 71
    2
 72
    6
 73
    3
 74
    0
 42
1e-07
 43
1e-07
 40
0
 40
0
 40
0
 40
1
 40
1
 40
1
 10
-1100000
 20
1400000
 30
0
 10
-1222268.84907992
 20
850993.7784699831
 30
0
 10
-1700000
 20
500000
 30
0
  0
SPLINE
  5
BD
100
AcDbEntity
  8
noname4
  6
ByLayer
 62
  256
370
   -1
100
AcDbSpline
210
0
220
0
230
0
 70
    8
 71
    2
 72
    6
 73
    3
 74
    0
 42
1e-07
 43
1e-07
 40
0
 40
0
 40
0
 40
1
 40
1
 40
1
 10
-1700000
 20
500000
 30
0
 10
-1389320.281894107
 20
615811.3883008421
 30
0
 10
-1200000
 20
900000
 30
0
  0
SPLINE
  5
BE
100
AcDbEntity
  8
noname4
  6
ByLayer
 62
  256
370
   -1
100
AcDbSpline
210
0
220
0
230
0
 70
    8
 71
    2
 72
    6
 73
    3
 74
    0
 42
1e-07
 43
1e-07
 40
0
 40
0
 40
0
 40
1
 40
1
 40
1
 10
-1300000
 20
900000
 30
0
 10
-1525717.453238524
 20
327612.1846498648
 30
0
 10
-1500000
 20
-300000
 30
0
  0
SPLINE
  5
BF
100
AcDbEntity
  8
noname4
  6
ByLayer
 62
  256
370
   -1
100
AcDbSpline
210
0
220
0
230
0
 70
    8
 71
    2
 72
    6
 73
    3
 74
    0
 42
1e-07
 43
1e-07
 40
0
 40
0
 40
0
 40
1
 40
1
 40
1
 10
-1500000
 20
-300000
 30
0
 10
-1389153.477109067
 20
141004.7975821264
 30
0
 10
-1100000
 20
499999.9999999998
 30
0
  0
SPLINE
  5
C0
100
AcDbEntity
  8
noname4
  6
ByLayer
 62
  256
370
   -1
100
AcDbSpline
210
0
220
0
230
0
 70
    8
 71
    2
 72
    6
 73
    3
 74
    0
 42
1e-07
 43
1e-07
 40
0
 40
0
 40
0
 40
1
 40
1
 40
1
 10
-1400000
 20
300000
 30
0
 10
-1455708.601453116
 20
-129986.7367239363
 30
0
 10
-1200000
 20
-500000
 30
0
  0
SPLINE
  5
C1
100
AcDbEntity
  8
noname4
  6
ByLayer
 62
  256
370
   -1
100
AcDbSpline
210
0
220
0
230
0
 70
    8
 71
    2
 72
    6
 73
    3
 74
    0
 42
1e-07
 43
1e-07
 40
0
 40
0
 40
0
 40
1
 40
1
 40
1
 10
-1200000
 20
-500000
 30
0
 10
-1224253.562503634
 20
-190858.9687336502
 30
0
 10
-1100000
 20
100000
 30
0
  0
SPLINE
  5
C2
100
AcDbEntity
  8
noname4
  6
ByLayer
 62
  256
370
   -1
100
AcDbSpline
210
0
220
0
230
0
 70
    8
 71
    2
 72
    6
 73
    3
 74
    0
 42
1e-07
 43
1e-07
 40
0
 40
0
 40
0
 40
1
 40
1
 40
1
 10
-1200000
 20
100000
 30
0
 10
-1126843.774609658
 20
-257816.9256133947
 30
0
 10
-1000000
 20
-600000
 30
0
  0
SPLINE
  5
C3
100
AcDbEntity
  8
noname4
  6
ByLayer
 62
  256
370
   -1
100
AcDbSpline
210
0
220
0
230
0
 70
    8
 71
    2
 72
    6
 73
    3
 74
    0
 42
1e-07
 43
1e-07
 40
0
 40
0
 40
0
 40
1
 40
1
 40
1
 10
-1000000
 20
-600000
 30
0
 10
-1000000
 20
-300000.0000000001
 30
0
 10
-1000000
 20
0
 30
0
  0
SPLINE
  5
C4
100
AcDbEntity
  8
noname4
  6
ByLayer
 62
  256
370
   -1
100
AcDbSpline
210
0
220
0
230
0
 70
    8
 71
    2
 72
    6
 73
    3
 74
    0
 42
1e-07
 43
1e-07
 40
0
 40
0
 40
0
 40
1
 40
1
 40
1
 10
-1100000
 20
0
 30
0
 10
-972122.4029678134
 20
-244848.7221748141
 30
0
 10
-866025.4037844385
 20
-500000.0000000008
 30
0
  0
SPLINE
  5
C5
100
AcDbEntity
  8
noname4
  6
ByLayer
 62
  256
370
   -1
100
AcDbSpline
210
0
220
0
230
0
 70
    8
 71
    2
 72
    6
 73
    3
 74
    0
 42
1e-07
 43
1e-07
 40
0
 40
0
 40
0
 40
1
 40
1
 40
1
 10
-800000
 20
800000
 30
0
 10
-755278.6404500044
 20
465835.9213500127
 30
0
 10
-1000000
 20
200000
 30
0
  0
SPLINE
  5
C6
100
AcDbEntity
  8
noname4
  6
ByLayer
 62
  256
370
   -1
100
AcDbSpline
210
0
220
0
230
0
 70
    8
 71
    2
 72
    6
 73
    3
 74
    0
 42
1e-07
 43
1e-07
 40
0
 40
0
 40
0
 40
1
 40
1
 40
1
 10
-1400000
 20
700000
 30
0
 10
-1670630.643369613
 20
403363.3639699816
 30
0
 10
-1700000
 20
0
 30
0
  0
SPLINE
  5
C7
100
AcDbEntity
  8
noname4
  6
ByLayer
 62
  256
370
   -1
100
AcDbSpline
210
0
220
0
230
0
 70
    8
 71
    2
 72
    6
 73
    3
 74
    0
 42
1e-07
 43
1e-07
 40
0
 40
0
 40
0
 40
1
 40
1
 40
1
 10
-1700000
 20
0
 30
0
 10
-1465649.711574557
 20
220208.1528017131
 30
0
 10
-1300000
 20
500000
 30
0
  0
SPLINE
  5
C8
100
AcDbEntity
  8
noname5
  6
ByLayer
 62
  256
370
   -1
100
AcDbSpline
210
0
220
0
230
0
 70
    8
 71
    2
 72
    6
 73
    3
 74
    0
 42
1e-07
 43
1e-07
 40
0
 40
0
 40
0
 40
1
 40
1
 40
1
 10
-1100000
 20
1400000
 30
0
 10
-1359087.894786875
 20
1062128.245497291
 30
0
 10
-1800000
 20
1000000
 30
0
  0
SPLINE
  5
C9
100
AcDbEntity
  8
noname5
  6
ByLayer
 62
  256
370
   -1
100
AcDbSpline
210
0
220
0
230
0
 70
    8
 71
    2
 72
    6
 73
    3
 74
    0
 42
1e-07
 43
1e-07
 40
0
 40
0
 40
0
 40
1
 40
1
 40
1
 10
-1800000
 20
1000000
 30
0
 10
-1554384.46988385
 20
1024655.781025002
 30
0
 10
-1320000
 20
1100000
 30
0
  0
SPLINE
  5
CA
100
AcDbEntity
  8
noname5
  6
ByLayer
 62
  256
370
   -1
100
AcDbSpline
210
0
220
0
230
0
 70
    8
 71
    2
 72
    6
 73
    3
 74
    0
 42
1e-07
 43
1e-07
 40
0
 40
0
 40
0
 40
1
 40
1
 40
1
 10
-1320000
 20
1100000
 30
0
 10
-1544423.68285087
 20
849196.1544529076
 30
0
 10
-1600000
 20
500000
 30
0
  0
SPLINE
  5
CB
100
AcDbEntity
  8
noname5
  6
ByLayer
 62
  256
370
   -1
100
AcDbSpline
210
0
220
0
230
0
 70
    8
 71
    2
 72
    6
 73
    3
 74
    0
 42
1e-07
 43
1e-07
 40
0
 40
0
 40
0
 40
1
 40
1
 40
1
 10
-1600000
 20
500000
 30
0
 10
-1515811.388300842
 20
747434.1649025256
 30
0
 10
-1300000
 20
900000
 30
0
  0
SPLINE
  5
CC
100
AcDbEntity
  8
noname5
  6
ByLayer
 62
  256
370
   -1
100
AcDbSpline
210
0
220
0
230
0
 70
    8
 71
    2
 72
    6
 73
    3
 74
    0
 42
1e-07
 43
1e-07
 40
0
 40
0
 40
0
 40
1
 40
1
 40
1
 10
-1300000
 20
900000
 30
0
 10
-1749615.088301352
 20
405854.9313211698
 30
0
 10
-1500000
 20
-300000
 30
0
  0
SPLINE
  5
CD
100
AcDbEntity
  8
noname5
  6
ByLayer
 62
  256
370
   -1
100
AcDbSpline
210
0
220
0
230
0
 70
    8
 71
    2
 72
    6
 73
    3
 74
    0
 42
1e-07
 43
1e-07
 40
0
 40
0
 40
0
 40
1
 40
1
 40
1
 10
-1500000
 20
-299999.9999999998
 30
0
 10
-1389153.477109067
 20
141004.7975821263
 30
0
 10
-1100000
 20
499999.9999999998
 30
0
  0
SPLINE
  5
CE
100
AcDbEntity
  8
noname5
  6
ByLayer
 62
  256
370
   -1
100
AcDbSpline
210
0
220
0
230
0
 70
    8
 71
    2
 72
    6
 73
    3
 74
    0
 42
1e-07
 43
1e-07
 40
0
 40
0
 40
0
 40
1
 40
1
 40
1
 10
-1400000
 20
300000
 30
0
 10
-1455708.601453116
 20
-129986.7367239363
 30
0
 10
-1200000
 20
-500000
 30
0
  0
SPLINE
  5
CF
100
AcDbEntity
  8
noname5
  6
ByLayer
 62
  256
370
   -1
100
AcDbSpline
210
0
220
0
230
0
 70
    8
 71
    2
 72
    6
 73
    3
 74
    0
 42
1e-07
 43
1e-07
 40
0
 40
0
 40
0
 40
1
 40
1
 40
1
 10
-1200000
 20
-500000
 30
0
 10
-1247434.164902525
 20
-184188.611699158
 30
0
 10
-1100000
 20
99999.99999999985
 30
0
  0
SPLINE
  5
D0
100
AcDbEntity
  8
noname5
  6
ByLayer
 62
  256
370
   -1
100
AcDbSpline
210
0
220
0
230
0
 70
    8
 71
    2
 72
    6
 73
    3
 74
    0
 42
1e-07
 43
1e-07
 40
0
 40
0
 40
0
 40
1
 40
1
 40
1
 10
-1100000
 20
500000
 30
0
 10
-1202899.151085505
 20
-20049.00959975641
 30
0
 10
-800000
 20
-400000
 30
0
  0
SPLINE
  5
D1
100
AcDbEntity
  8
noname5
  6
ByLayer
 62
  256
370
   -1
100
AcDbSpline
210
0
220
0
230
0
 70
    8
 71
    2
 72
    6
 73
    3
 74
    0
 42
1e-07
 43
1e-07
 40
0
 40
0
 40
0
 40
1
 40
1
 40
1
 10
-800000
 20
-400000
 30
0
 10
-1011803.398874989
 20
-88196.60112501051
 30
0
 10
-900000
 20
300000
 30
0
  0
SPLINE
  5
D2
100
AcDbEntity
  8
noname5
  6
ByLayer
 62
  256
370
   -1
100
AcDbSpline
210
0
220
0
230
0
 70
    8
 71
    2
 72
    6
 73
    3
 74
    0
 42
1e-07
 43
1e-07
 40
0
 40
0
 40
0
 40
1
 40
1
 40
1
 10
-1200000
 20
0
 30
0
 10
-1225724.787771377
 20
-348672.9484566379
 30
0
 10
-900000
 20
-600000
 30
0
  0
SPLINE
  5
D3
100
AcDbEntity
  8
noname5
  6
ByLayer
 62
  256
370
   -1
100
AcDbSpline
210
0
220
0
230
0
 70
    8
 71
    2
 72
    6
 73
    3
 74
    0
 42
1e-07
 43
1e-07
 40
0
 40
0
 40
0
 40
1
 40
1
 40
1
 10
-900000
 20
-600000
 30
0
 10
-1089442.719099992
 20
-332917.9606750064
 30
0
 10
-1000000
 20
0
 30
0
  0
SPLINE
  5
D4
100
AcDbEntity
  8
noname5
  6
ByLayer
 62
  256
370
   -1
100
AcDbSpline
210
0
220
0
230
0
 70
    8
 71
    2
 72
    6
 73
    3
 74
    0
 42
1e-07
 43
1e-07
 40
0
 40
0
 40
0
 40
1
 40
1
 40
1
 10
-1200000
 20
800000
 30
0
 10
-1398861.62647929
 20
631615.9462310885
 30
0
 10
-1470000
 20
370000
 30
0
  0
SPLINE
  5
D5
100
AcDbEntity
  8
noname5
  6
ByLayer
 62
  256
370
   -1
100
AcDbSpline
210
0
220
0
230
0
 70
    8
 71
    2
 72
    6
 73
    3
 74
    0
 42
1e-07
 43
1e-07
 40
0
 40
0
 40
0
 40
1
 40
1
 40
1
 10
-1020000
 20
1030000
 30
0
 10
-1168808.727790926
 20
1010681.453314026
 30
0
 10
-1270000
 20
880000
 30
0
  0
SPLINE
  5
D6
100
AcDbEntity
  8
noname5
  6
ByLayer
 62
  256
370
   -1
100
AcDbSpline
210
0
220
0
230
0
 70
    8
 71
    2
 72
    6
 73
    3
 74
    0
 42
1e-07
 43
1e-07
 40
0
 40
0
 40
0
 40
1
 40
1
 40
1
 10
-400000
 20
1500000
 30
0
 10
-803245.7220445534
 20
1365486.575501869
 30
0
 10
-900000
 20
900000
 30
0
  0
SPLINE
  5
D7
100
AcDbEntity
  8
noname5
  6
ByLayer
 62
  256
370
   -1
100
AcDbSpline
210
0
220
0
230
0
 70
    8
 71
    2
 72
    6
 73
    3
 74
    0
 42
1e-07
 43
1e-07
 40
0
 40
0
 40
0
 40
1
 40
1
 40
1
 10
-300000
 20
1400000
 30
0
 10
-467082.0393249936
 20
1177639.320225002
 30
0
 10
-400000
 20
900000
 30
0
  0
SPLINE
  5
D8
100
AcDbEntity
  8
noname5
  6
ByLayer
 62
  256
370
   -1
100
AcDbSpline
210
0
220
0
230
0
 70
    8
 71
    2
 72
    6
 73
    3
 74
    0
 42
1e-07
 43
1e-07
 40
0
 40
0
 40
0
 40
1
 40
1
 40
1
 10
-100000
 20
1300000
 30
0
 10
-267082.0393249937
 20
1077639.320225002
 30
0
 10
-200000
 20
800000
 30
0
  0
SPLINE
  5
D9
100
AcDbEntity
  8
noname5
  6
ByLayer
 62
  256
370
   -1
100
AcDbSpline
210
0
220
0
230
0
 70
    8
 71
    2
 72
    6
 73
    3
 74
    0
 42
1e-07
 43
1e-07
 40
0
 40
0
 40
0
 40
1
 40
1
 40
1
 10
-410410.3221504166
 20
1779984.037325406
 30
0
 10
-205650.5437079531
 20
1821845.705126161
 30
0
 10
3831.168340457301
 20
1829965.8152164
 30
0
  0
ARC
  5
DA
100
AcDbEntity
  8
noname6
  6
ByLayer
 62
  256
370
   -1
100
AcDbCircle
 10
933012.7018922169
 20
1616025.403784434
 40
2777427.157485453
100
AcDbArc
 50
229.6289166379914
 51
250.3710833620086
  0
ARC
  5
DB
100
AcDbEntity
  8
noname6
  6
ByLayer
 62
  256
370
   -1
100
AcDbCircle
 10
-933012.7018922261
 20
1616025.403784448
 40
2777427.15748547
100
AcDbArc
 50
289.6289166379915
 51
310.3710833620085
  0
SPLINE
  5
DC
100
AcDbEntity
  8
noname6
  6
ByLayer
 62
  256
370
   -1
100
AcDbSpline
210
0
220
0
230
0
 70
    8
 71
    2
 72
    8
 73
    5
 74
    0
 42
1e-07
 43
1e-07
 40
0
 40
0
 40
0
 40
0.3333333333333333
 40
0.6666666666666666
 40
1
 40
1
 40
1
 10
0
 20
-300000
 30
0
 10
-25056.41057181156
 20
-319041.0210112435
 30
0
 10
-13766.3662386638
 20
-371720.7613382303
 30
0
 10
35413.24900127191
 20
-332834.0254422445
 30
0
 10
0
 20
-300000
 30
0
  0
SPLINE
  5
DD
100
AcDbEntity
  8
noname6
  6
ByLayer
 62
  256
370
   -1
100
AcDbSpline
210
0
220
0
230
0
 70
    8
 71
    2
 72
    8
 73
    5
 74
    0
 42
1e-07
 43
1e-07
 40
0
 40
0
 40
0
 40
0.3333333333333333
 40
0.6666666666666666
 40
1
 40
1
 40
1
 10
100000
 20
100000
 30
0
 10
204160.2057774602
 20
-39241.87032754111
 30
0
 10
596581.8344615118
 20
-156940.6715288092
 30
0
 10
800683.6331076976
 20
111388.1343057618
 30
0
 10
900000
 20
200000
 30
0
  0
SPLINE
  5
DE
100
AcDbEntity
  8
noname6
  6
ByLayer
 62
  256
370
   -1
100
AcDbSpline
210
0
220
0
230
0
 70
    8
 71
    2
 72
    6
 73
    3
 74
    0
 42
1e-07
 43
1e-07
 40
0
 40
0
 40
0
 40
1
 40
1
 40
1
 10
100000
 20
400000
 30
0
 10
376776.6952966369
 20
747487.3734152915
 30
0
 10
900000
 20
500000
 30
0
  0
SPLINE
  5
DF
100
AcDbEntity
  8
noname6
  6
ByLayer
 62
  256
370
   -1
100
AcDbSpline
210
0
220
0
230
0
 70
    8
 71
    2
 72
    6
 73
    3
 74
    0
 42
1e-07
 43
1e-07
 40
0
 40
0
 40
0
 40
1
 40
1
 40
1
 10
100000
 20
200000
 30
0
 10
244721.3595499959
 20
389442.7190999916
 30
0
 10
500000
 20
400000
 30
0
  0
ARC
  5
E0
100
AcDbEntity
  8
noname6
  6
ByLayer
 62
  256
370
   -1
100
AcDbCircle
 10
492336.4485981308
 20
99626.16822429909
 40
242336.7369371615
100
AcDbArc
 50
135.3281151395286
 51
221.2004756826146
  0
ARC
  5
E1
100
AcDbEntity
  8
noname6
  6
ByLayer
 62
  256
370
   -1
100
AcDbCircle
 10
499999.9999999999
 20
100000
 40
250000.0000000001
100
AcDbArc
 50
343.739795291688
 51
55.20717378013133
  0
CIRCLE
  5
E2
100
AcDbEntity
  8
noname6
  6
ByLayer
 62
  256
370
   -1
100
AcDbCircle
 10
500000
 20
100000
 40
100000
  0
CIRCLE
  5
E3
100
AcDbEntity
  8
noname6
  6
ByLayer
 62
  256
370
   -1
100
AcDbCircle
 10
500000
 20
100000
 40
160000
  0
LINE
  5
E4
100
AcDbEntity
  8
noname6
  6
ByLayer
 62
  256
370
   -1
100
AcDbLine
 10
386862.9150101524
 20
213137.0849898476
 11
613137.0849898476
 21
-13137.08498984759
  0
LINE
  5
E5
100
AcDbEntity
  8
noname6
  6
ByLayer
 62
  256
370
   -1
100
AcDbLine
 10
386862.9150101524
 20
-13137.08498984759
 11
613137.0849898476
 21
213137.0849898476
  0
LINE
  5
E6
100
AcDbEntity
  8
noname6
  6
ByLayer
 62
  256
370
   -1
100
AcDbLine
 10
-200000
 20
100000
 11
-700000
 21
-100000
  0
LINE
  5
E7
100
AcDbEntity
  8
noname6
  6
ByLayer
 62
  256
370
   -1
100
AcDbLine
 10
-197825.8916004135
 20
108113.883008419
 11
-700000
 21
400000
  0
SPLINE
  5
E8
100
AcDbEntity
  8
noname6
  6
ByLayer
 62
  256
370
   -1
100
AcDbSpline
210
0
220
0
230
0
 70
    8
 71
    2
 72
    6
 73
    3
 74
    0
 42
1e-07
 43
1e-07
 40
0
 40
0
 40
0
 40
1
 40
1
 40
1
 10
1094704.790911304
 20
2025485.943714412
 30
0
 10
1214919.53384235
 20
1542459.507702895
 30
0
 10
938421.4310110665
 20
1139158.966003425
 30
0
  0
SPLINE
  5
E9
100
AcDbEntity
  8
noname6
  6
ByLayer
 62
  256
370
   -1
100
AcDbSpline
210
0
220
0
230
0
 70
    8
 71
    2
 72
    6
 73
    3
 74
    0
 42
1e-07
 43
1e-07
 40
0
 40
0
 40
0
 40
1
 40
1
 40
1
 10
1094704.790911304
 20
2025485.943714412
 30
0
 10
895635.7200763926
 20
1765916.285493423
 30
0
 10
613957.6008729554
 20
1602541.338275081
 30
0
  0
SPLINE
  5
EA
100
AcDbEntity
  8
noname6
  6
ByLayer
 62
  256
370
   -1
100
AcDbSpline
210
0
220
0
230
0
 70
    8
 71
    2
 72
    6
 73
    3
 74
    0
 42
1e-07
 43
1e-07
 40
0
 40
0
 40
0
 40
1
 40
1
 40
1
 10
1094704.790911304
 20
2025485.943714412
 30
0
 10
1214919.53384235
 20
1542459.507702895
 30
0
 10
938421.4310110665
 20
1139158.966003425
 30
0
  0
SPLINE
  5
EB
100
AcDbEntity
  8
noname6
  6
ByLayer
 62
  256
370
   -1
100
AcDbSpline
210
0
220
0
230
0
 70
    8
 71
    2
 72
    6
 73
    3
 74
    0
 42
1e-07
 43
1e-07
 40
0
 40
0
 40
0
 40
1
 40
1
 40
1
 10
1094704.790911304
 20
2025485.943714412
 30
0
 10
895635.7200763926
 20
1765916.285493423
 30
0
 10
613957.6008729554
 20
1602541.338275081
 30
0
  0
SPLINE
  5
EC
100
AcDbEntity
  8
noname6
  6
ByLayer
 62
  256
370
   -1
100
AcDbSpline
210
0
220
0
230
0
 70
    8
 71
    2
 72
    6
 73
    3
 74
    0
 42
1e-07
 43
1e-07
 40
0
 40
0
 40
0
 40
1
 40
1
 40
1
 10
1094704.790911304
 20
2025485.943714412
 30
0
 10
1214919.53384235
 20
1542459.507702895
 30
0
 10
938421.4310110665
 20
1139158.966003425
 30
0
  0
SPLINE
  5
ED
100
AcDbEntity
  8
noname6
  6
ByLayer
 62
  256
370
   -1
100
AcDbSpline
210
0
220
0
230
0
 70
    8
 71
    2
 72
    6
 73
    3
 74
    0
 42
1e-07
 43
1e-07
 40
0
 40
0
 40
0
 40
1
 40
1
 40
1
 10
1094704.790911304
 20
2025485.943714412
 30
0
 10
895635.7200763926
 20
1765916.285493423
 30
0
 10
613957.6008729554
 20
1602541.338275081
 30
0
  0
LINE
  5
EE
100
AcDbEntity
  8
noname6
  6
ByLayer
 62
  256
370
   -1
100
AcDbLine
 10
335880.092735986
 20
1753116.56687638
 11
1094704.790911304
 21
2025485.943714412
  0
SPLINE
  5
EF
100
AcDbEntity
  8
noname6
  6
ByLayer
 62
  256
370
   -1
100
AcDbSpline
210
0
220
0
230
0
 70
    8
 71
    2
 72
    6
 73
    3
 74
    0
 42
1e-07
 43
1e-07
 40
0
 40
0
 40
0
 40
1
 40
1
 40
1
 10
1094704.790911304
 20
2025485.943714412
 30
0
 10
1214919.53384235
 20
1542459.507702895
 30
0
 10
938421.4310110665
 20
1139158.966003425
 30
0
  0
SPLINE
  5
F0
100
AcDbEntity
  8
noname6
  6
ByLayer
 62
  256
370
   -1
100
AcDbSpline
210
0
220
0
230
0
 70
    8
 71
    2
 72
    6
 73
    3
 74
    0
 42
1e-07
 43
1e-07
 40
0
 40
0
 40
0
 40
1
 40
1
 40
1
 10
1094704.790911304
 20
2025485.943714412
 30
0
 10
895635.7200763926
 20
1765916.285493423
 30
0
 10
613957.6008729554
 20
1602541.338275081
 30
0
  0
SPLINE
  5
F1
100
AcDbEntity
  8
noname6
  6
ByLayer
 62
  256
370
   -1
100
AcDbSpline
210
0
220
0
230
0
 70
    8
 71
    2
 72
    6
 73
    3
 74
    0
 42
1e-07
 43
1e-07
 40
0
 40
0
 40
0
 40
1
 40
1
 40
1
 10
-1094704.790911304
 20
2025485.943714412
 30
0
 10
-1214919.53384235
 20
1542459.507702895
 30
0
 10
-938421.4310110665
 20
1139158.966003425
 30
0
  0
SPLINE
  5
F2
100
AcDbEntity
  8
noname6
  6
ByLayer
 62
  256
370
   -1
100
AcDbSpline
210
0
220
0
230
0
 70
    8
 71
    2
 72
    6
 73
    3
 74
    0
 42
1e-07
 43
1e-07
 40
0
 40
0
 40
0
 40
1
 40
1
 40
1
 10
-1094704.790911304
 20
2025485.943714412
 30
0
 10
-895635.7200763926
 20
1765916.285493423
 30
0
 10
-613957.6008729554
 20
1602541.338275081
 30
0
  0
SPLINE
  5
F3
100
AcDbEntity
  8
noname6
  6
ByLayer
 62
  256
370
   -1
100
AcDbSpline
210
0
220
0
230
0
 70
    8
 71
    2
 72
    6
 73
    3
 74
    0
 42
1e-07
 43
1e-07
 40
0
 40
0
 40
0
 40
1
 40
1
 40
1
 10
-1094704.790911304
 20
2025485.943714412
 30
0
 10
-1214919.53384235
 20
1542459.507702895
 30
0
 10
-938421.4310110665
 20
1139158.966003425
 30
0
  0
SPLINE
  5
F4
100
AcDbEntity
  8
noname6
  6
ByLayer
 62
  256
370
   -1
100
AcDbSpline
210
0
220
0
230
0
 70
    8
 71
    2
 72
    6
 73
    3
 74
    0
 42
1e-07
 43
1e-07
 40
0
 40
0
 40
0
 40
1
 40
1
 40
1
 10
-1094704.790911304
 20
2025485.943714412
 30
0
 10
-895635.7200763926
 20
1765916.285493423
 30
0
 10
-613957.6008729554
 20
1602541.338275081
 30
0
  0
SPLINE
  5
F5
100
AcDbEntity
  8
noname6
  6
ByLayer
 62
  256
370
   -1
100
AcDbSpline
210
0
220
0
230
0
 70
    8
 71
    2
 72
    6
 73
    3
 74
    0
 42
1e-07
 43
1e-07
 40
0
 40
0
 40
0
 40
1
 40
1
 40
1
 10
-1094704.790911304
 20
2025485.943714412
 30
0
 10
-1214919.53384235
 20
1542459.507702895
 30
0
 10
-938421.4310110665
 20
1139158.966003425
 30
0
  0
SPLINE
  5
F6
100
AcDbEntity
  8
noname6
  6
ByLayer
 62
  256
370
   -1
100
AcDbSpline
210
0
220
0
230
0
 70
    8
 71
    2
 72
    6
 73
    3
 74
    0
 42
1e-07
 43
1e-07
 40
0
 40
0
 40
0
 40
1
 40
1
 40
1
 10
-1094704.790911304
 20
2025485.943714412
 30
0
 10
-895635.7200763926
 20
1765916.285493423
 30
0
 10
-613957.6008729554
 20
1602541.338275081
 30
0
  0
LINE
  5
F7
100
AcDbEntity
  8
noname6
  6
ByLayer
 62
  256
370
   -1
100
AcDbLine
 10
-335880.092735986
 20
1753116.56687638
 11
-1094704.790911304
 21
2025485.943714412
  0
SPLINE
  5
F8
100
AcDbEntity
  8
noname6
  6
ByLayer
 62
  256
370
   -1
100
AcDbSpline
210
0
220
0
230
0
 70
    8
 71
    2
 72
    6
 73
    3
 74
    0
 42
1e-07
 43
1e-07
 40
0
 40
0
 40
0
 40
1
 40
1
 40
1
 10
-1094704.790911304
 20
2025485.943714412
 30
0
 10
-1214919.53384235
 20
1542459.507702895
 30
0
 10
-938421.4310110665
 20
1139158.966003425
 30
0
  0
SPLINE
  5
F9
100
AcDbEntity
  8
noname6
  6
ByLayer
 62
  256
370
   -1
100
AcDbSpline
210
0
220
0
230
0
 70
    8
 71
    2
 72
    6
 73
    3
 74
    0
 42
1e-07
 43
1e-07
 40
0
 40
0
 40
0
 40
1
 40
1
 40
1
 10
-1094704.790911304
 20
2025485.943714412
 30
0
 10
-895635.7200763926
 20
1765916.285493423
 30
0
 10
-613957.6008729554
 20
1602541.338275081
 30
0
  0
SPLINE
  5
FA
100
AcDbEntity
  8
noname6
  6
ByLayer
 62
  256
370
   -1
100
AcDbSpline
210
0
220
0
230
0
 70
    8
 71
    2
 72
    6
 73
    3
 74
    0
 42
1e-07
 43
1e-07
 40
0
 40
0
 40
0
 40
1
 40
1
 40
1
 10
100000
 20
100000
 30
0
 10
435355.3390593274
 20
476776.6952966369
 30
0
 10
900000
 20
200000
 30
0
  0
SPLINE
  5
FB
100
AcDbEntity
  8
noname5
  6
ByLayer
 62
  256
370
   -1
100
AcDbSpline
210
0
220
0
230
0
 70
    8
 71
    2
 72
    6
 73
    3
 74
    0
 42
1e-07
 43
1e-07
 40
0
 40
0
 40
0
 40
1
 40
1
 40
1
 10
-933784.0843676807
 20
-251961.1120668959
 30
0
 10
-905764.1732782326
 20
-377549.2514591608
 30
0
 10
-866025.4037844404
 20
-499999.9999999979
 30
0
  0
SPLINE
  5
FC
100
AcDbEntity
  8
noname5
  6
ByLayer
 62
  256
370
   -1
100
AcDbSpline
210
0
220
0
230
0
 70
    8
 71
    2
 72
    6
 73
    3
 74
    0
 42
1e-07
 43
1e-07
 40
0
 40
0
 40
0
 40
1
 40
1
 40
1
 10
-600000
 20
1000000
 30
0
 10
-555278.6404500045
 20
665835.9213500129
 30
0
 10
-800000
 20
400000
 30
0
  0
SPLINE
  5
FD
100
AcDbEntity
  8
noname5
  6
ByLayer
 62
  256
370
   -1
100
AcDbSpline
210
0
220
0
230
0
 70
    8
 71
    2
 72
    6
 73
    3
 74
    0
 42
1e-07
 43
1e-07
 40
0
 40
0
 40
0
 40
1
 40
1
 40
1
 10
-800000
 20
400000
 30
0
 10
-632917.9606750062
 20
622360.6797749979
 30
0
 10
-700000
 20
900000
 30
0
  0
SPLINE
  5
FE
100
AcDbEntity
  8
noname5
  6
ByLayer
 62
  256
370
   -1
100
AcDbSpline
210
0
220
0
230
0
 70
    8
 71
    2
 72
    6
 73
    3
 74
    0
 42
1e-07
 43
1e-07
 40
0
 40
0
 40
0
 40
1
 40
1
 40
1
 10
-100000
 20
600000
 30
0
 10
-121199.9576001272
 20
459580.1208396376
 30
0
 10
0
 20
360000
 30
0
  0
SPLINE
  5
FF
100
AcDbEntity
  8
noname5
  6
ByLayer
 62
  256
370
   -1
100
AcDbSpline
210
0
220
0
230
0
 70
    8
 71
    2
 72
    6
 73
    3
 74
    0
 42
1e-07
 43
1e-07
 40
0
 40
0
 40
0
 40
1
 40
1
 40
1
 10
-700000
 20
900000
 30
0
 10
-865079.137345597
 20
624074.3397634703
 30
0
 10
-900000
 20
300000
 30
0
  0
SPLINE
  5
100
100
AcDbEntity
  8
noname5
  6
ByLayer
 62
  256
370
   -1
100
AcDbSpline
210
0
220
0
230
0
 70
    8
 71
    2
 72
    6
 73
    3
 74
    0
 42
1e-07
 43
1e-07
 40
0
 40
0
 40
0
 40
1
 40
1
 40
1
 10
-900000
 20
1000000
 30
0
 10
-1211474.080342631
 20
791425.0707428746
 30
0
 10
-1200000
 20
400000
 30
0
  0
SPLINE
  5
101
100
AcDbEntity
  8
noname5
  6
ByLayer
 62
  256
370
   -1
100
AcDbSpline
210
0
220
0
230
0
 70
    8
 71
    2
 72
    6
 73
    3
 74
    0
 42
1e-07
 43
1e-07
 40
0
 40
0
 40
0
 40
1
 40
1
 40
1
 10
500000
 20
400000
 30
0
 10
603429.9837830389
 20
674450.673491456
 30
0
 10
480000
 20
970000
 30
0
  0
SPLINE
  5
102
100
AcDbEntity
  8
noname5
  6
ByLayer
 62
  256
370
   -1
100
AcDbSpline
210
0
220
0
230
0
 70
    8
 71
    2
 72
    6
 73
    3
 74
    0
 42
1e-07
 43
1e-07
 40
0
 40
0
 40
0
 40
1
 40
1
 40
1
 10
390000
 20
690000
 30
0
 10
279294.6336026709
 20
542208.4911897426
 30
0
 10
340000
 20
350000
 30
0
  0
SPLINE
  5
103
100
AcDbEntity
  8
noname5
  6
ByLayer
 62
  256
370
   -1
100
AcDbSpline
210
0
220
0
230
0
 70
    8
 71
    2
 72
    6
 73
    3
 74
    0
 42
1e-07
 43
1e-07
 40
0
 40
0
 40
0
 40
1
 40
1
 40
1
 10
340000
 20
350000
 30
0
 10
228160.0695312413
 20
457784.2918987843
 30
0
 10
300000
 20
630000
 30
0
  0
SPLINE
  5
104
100
AcDbEntity
  8
noname5
  6
ByLayer
 62
  256
370
   -1
100
AcDbSpline
210
0
220
0
230
0
 70
    8
 71
    2
 72
    6
 73
    3
 74
    0
 42
1e-07
 43
1e-07
 40
0
 40
0
 40
0
 40
1
 40
1
 40
1
 10
300000
 20
630000
 30
0
 10
228418.8611699158
 20
447822.4186072216
 30
0
 10
60000
 20
340000
 30
0
  0
SPLINE
  5
105
100
AcDbEntity
  8
noname5
  6
ByLayer
 62
  256
370
   -1
100
AcDbSpline
210
0
220
0
230
0
 70
    8
 71
    2
 72
    6
 73
    3
 74
    0
 42
1e-07
 43
1e-07
 40
0
 40
0
 40
0
 40
1
 40
1
 40
1
 10
60000
 20
340000
 30
0
 10
155470.019622523
 20
447149.5166791446
 30
0
 10
100000
 20
600000
 30
0
  0
SPLINE
  5
106
100
AcDbEntity
  8
noname5
  6
ByLayer
 62
  256
370
   -1
100
AcDbSpline
210
0
220
0
230
0
 70
    8
 71
    2
 72
    6
 73
    3
 74
    0
 42
1e-07
 43
1e-07
 40
0
 40
0
 40
0
 40
1
 40
1
 40
1
 10
1100000
 20
1400000
 30
0
 10
1359087.894786875
 20
1062128.245497291
 30
0
 10
1800000
 20
1000000
 30
0
  0
SPLINE
  5
107
100
AcDbEntity
  8
noname5
  6
ByLayer
 62
  256
370
   -1
100
AcDbSpline
210
0
220
0
230
0
 70
    8
 71
    2
 72
    6
 73
    3
 74
    0
 42
1e-07
 43
1e-07
 40
0
 40
0
 40
0
 40
1
 40
1
 40
1
 10
1800000
 20
1000000
 30
0
 10
1554384.46988385
 20
1024655.781025002
 30
0
 10
1320000
 20
1100000
 30
0
  0
SPLINE
  5
108
100
AcDbEntity
  8
noname5
  6
ByLayer
 62
  256
370
   -1
100
AcDbSpline
210
0
220
0
230
0
 70
    8
 71
    2
 72
    6
 73
    3
 74
    0
 42
1e-07
 43
1e-07
 40
0
 40
0
 40
0
 40
1
 40
1
 40
1
 10
1320000
 20
1100000
 30
0
 10
1544423.68285087
 20
849196.1544529076
 30
0
 10
1600000
 20
500000
 30
0
  0
SPLINE
  5
109
100
AcDbEntity
  8
noname5
  6
ByLayer
 62
  256
370
   -1
100
AcDbSpline
210
0
220
0
230
0
 70
    8
 71
    2
 72
    6
 73
    3
 74
    0
 42
1e-07
 43
1e-07
 40
0
 40
0
 40
0
 40
1
 40
1
 40
1
 10
1600000
 20
500000
 30
0
 10
1515811.388300842
 20
747434.1649025256
 30
0
 10
1300000
 20
900000
 30
0
  0
SPLINE
  5
10A
100
AcDbEntity
  8
noname5
  6
ByLayer
 62
  256
370
   -1
100
AcDbSpline
210
0
220
0
230
0
 70
    8
 71
    2
 72
    6
 73
    3
 74
    0
 42
1e-07
 43
1e-07
 40
0
 40
0
 40
0
 40
1
 40
1
 40
1
 10
1300000
 20
900000
 30
0
 10
1749615.088301352
 20
405854.9313211698
 30
0
 10
1500000
 20
-300000
 30
0
  0
SPLINE
  5
10B
100
AcDbEntity
  8
noname5
  6
ByLayer
 62
  256
370
   -1
100
AcDbSpline
210
0
220
0
230
0
 70
    8
 71
    2
 72
    6
 73
    3
 74
    0
 42
1e-07
 43
1e-07
 40
0
 40
0
 40
0
 40
1
 40
1
 40
1
 10
1500000
 20
-299999.9999999998
 30
0
 10
1389153.477109067
 20
141004.7975821265
 30
0
 10
1100000
 20
499999.9999999999
 30
0
  0
SPLINE
  5
10C
100
AcDbEntity
  8
noname5
  6
ByLayer
 62
  256
370
   -1
100
AcDbSpline
210
0
220
0
230
0
 70
    8
 71
    2
 72
    6
 73
    3
 74
    0
 42
1e-07
 43
1e-07
 40
0
 40
0
 40
0
 40
1
 40
1
 40
1
 10
1400000
 20
300000
 30
0
 10
1455708.601453116
 20
-129986.7367239363
 30
0
 10
1200000
 20
-500000
 30
0
  0
SPLINE
  5
10D
100
AcDbEntity
  8
noname5
  6
ByLayer
 62
  256
370
   -1
100
AcDbSpline
210
0
220
0
230
0
 70
    8
 71
    2
 72
    6
 73
    3
 74
    0
 42
1e-07
 43
1e-07
 40
0
 40
0
 40
0
 40
1
 40
1
 40
1
 10
1200000
 20
-500000
 30
0
 10
1247434.164902525
 20
-184188.611699158
 30
0
 10
1100000
 20
99999.99999999985
 30
0
  0
SPLINE
  5
10E
100
AcDbEntity
  8
noname5
  6
ByLayer
 62
  256
370
   -1
100
AcDbSpline
210
0
220
0
230
0
 70
    8
 71
    2
 72
    6
 73
    3
 74
    0
 42
1e-07
 43
1e-07
 40
0
 40
0
 40
0
 40
1
 40
1
 40
1
 10
1100000
 20
500000
 30
0
 10
1202899.151085505
 20
-20049.00959975641
 30
0
 10
800000
 20
-400000
 30
0
  0
SPLINE
  5
10F
100
AcDbEntity
  8
noname5
  6
ByLayer
 62
  256
370
   -1
100
AcDbSpline
210
0
220
0
230
0
 70
    8
 71
    2
 72
    6
 73
    3
 74
    0
 42
1e-07
 43
1e-07
 40
0
 40
0
 40
0
 40
1
 40
1
 40
1
 10
800000
 20
-400000
 30
0
 10
1011803.398874989
 20
-88196.60112501051
 30
0
 10
900000
 20
300000
 30
0
  0
SPLINE
  5
110
100
AcDbEntity
  8
noname5
  6
ByLayer
 62
  256
370
   -1
100
AcDbSpline
210
0
220
0
230
0
 70
    8
 71
    2
 72
    6
 73
    3
 74
    0
 42
1e-07
 43
1e-07
 40
0
 40
0
 40
0
 40
1
 40
1
 40
1
 10
1200000
 20
0
 30
0
 10
1225724.787771377
 20
-348672.9484566379
 30
0
 10
900000
 20
-600000
 30
0
  0
SPLINE
  5
111
100
AcDbEntity
  8
noname5
  6
ByLayer
 62
  256
370
   -1
100
AcDbSpline
210
0
220
0
230
0
 70
    8
 71
    2
 72
    6
 73
    3
 74
    0
 42
1e-07
 43
1e-07
 40
0
 40
0
 40
0
 40
1
 40
1
 40
1
 10
900000
 20
-600000
 30
0
 10
1089442.719099992
 20
-332917.9606750064
 30
0
 10
1000000
 20
0
 30
0
  0
SPLINE
  5
112
100
AcDbEntity
  8
noname5
  6
ByLayer
 62
  256
370
   -1
100
AcDbSpline
210
0
220
0
230
0
 70
    8
 71
    2
 72
    6
 73
    3
 74
    0
 42
1e-07
 43
1e-07
 40
0
 40
0
 40
0
 40
1
 40
1
 40
1
 10
1200000
 20
800000
 30
0
 10
1398861.62647929
 20
631615.9462310885
 30
0
 10
1470000
 20
370000
 30
0
  0
SPLINE
  5
113
100
AcDbEntity
  8
noname5
  6
ByLayer
 62
  256
370
   -1
100
AcDbSpline
210
0
220
0
230
0
 70
    8
 71
    2
 72
    6
 73
    3
 74
    0
 42
1e-07
 43
1e-07
 40
0
 40
0
 40
0
 40
1
 40
1
 40
1
 10
1020000
 20
1030000
 30
0
 10
1168808.727790926
 20
1010681.453314026
 30
0
 10
1270000
 20
880000
 30
0
  0
SPLINE
  5
114
100
AcDbEntity
  8
noname5
  6
ByLayer
 62
  256
370
   -1
100
AcDbSpline
210
0
220
0
230
0
 70
    8
 71
    2
 72
    6
 73
    3
 74
    0
 42
1e-07
 43
1e-07
 40
0
 40
0
 40
0
 40
1
 40
1
 40
1
 10
400000
 20
1500000
 30
0
 10
803245.7220445534
 20
1365486.575501869
 30
0
 10
900000
 20
900000
 30
0
  0
SPLINE
  5
115
100
AcDbEntity
  8
noname5
  6
ByLayer
 62
  256
370
   -1
100
AcDbSpline
210
0
220
0
230
0
 70
    8
 71
    2
 72
    6
 73
    3
 74
    0
 42
1e-07
 43
1e-07
 40
0
 40
0
 40
0
 40
1
 40
1
 40
1
 10
300000
 20
1400000
 30
0
 10
467082.0393249936
 20
1177639.320225002
 30
0
 10
400000
 20
900000
 30
0
  0
SPLINE
  5
116
100
AcDbEntity
  8
noname5
  6
ByLayer
 62
  256
370
   -1
100
AcDbSpline
210
0
220
0
230
0
 70
    8
 71
    2
 72
    6
 73
    3
 74
    0
 42
1e-07
 43
1e-07
 40
0
 40
0
 40
0
 40
1
 40
1
 40
1
 10
100000
 20
1300000
 30
0
 10
267082.0393249937
 20
1077639.320225002
 30
0
 10
200000
 20
800000
 30
0
  0
SPLINE
  5
117
100
AcDbEntity
  8
noname5
  6
ByLayer
 62
  256
370
   -1
100
AcDbSpline
210
0
220
0
230
0
 70
    8
 71
    2
 72
    6
 73
    3
 74
    0
 42
1e-07
 43
1e-07
 40
0
 40
0
 40
0
 40
1
 40
1
 40
1
 10
410410.3221504166
 20
1779984.037325406
 30
0
 10
205650.5437079532
 20
1821845.705126162
 30
0
 10
-3831.168340457301
 20
1829965.8152164
 30
0
  0
SPLINE
  5
118
100
AcDbEntity
  8
noname5
  6
ByLayer
 62
  256
370
   -1
100
AcDbSpline
210
0
220
0
230
0
 70
    8
 71
    2
 72
    6
 73
    3
 74
    0
 42
1e-07
 43
1e-07
 40
0
 40
0
 40
0
 40
1
 40
1
 40
1
 10
933784.0843676807
 20
-251961.112066896
 30
0
 10
905764.1732782322
 20
-377549.2514591608
 30
0
 10
866025.4037844404
 20
-499999.9999999979
 30
0
  0
SPLINE
  5
119
100
AcDbEntity
  8
noname5
  6
ByLayer
 62
  256
370
   -1
100
AcDbSpline
210
0
220
0
230
0
 70
    8
 71
    2
 72
    6
 73
    3
 74
    0
 42
1e-07
 43
1e-07
 40
0
 40
0
 40
0
 40
1
 40
1
 40
1
 10
600000
 20
1000000
 30
0
 10
555278.6404500045
 20
665835.9213500129
 30
0
 10
800000
 20
400000
 30
0
  0
SPLINE
  5
11A
100
AcDbEntity
  8
noname5
  6
ByLayer
 62
  256
370
   -1
100
AcDbSpline
210
0
220
0
230
0
 70
    8
 71
    2
 72
    6
 73
    3
 74
    0
 42
1e-07
 43
1e-07
 40
0
 40
0
 40
0
 40
1
 40
1
 40
1
 10
800000
 20
400000
 30
0
 10
632917.9606750062
 20
622360.6797749979
 30
0
 10
700000
 20
900000
 30
0
  0
SPLINE
  5
11B
100
AcDbEntity
  8
noname5
  6
ByLayer
 62
  256
370
   -1
100
AcDbSpline
210
0
220
0
230
0
 70
    8
 71
    2
 72
    6
 73
    3
 74
    0
 42
1e-07
 43
1e-07
 40
0
 40
0
 40
0
 40
1
 40
1
 40
1
 10
100000
 20
600000
 30
0
 10
121199.9576001272
 20
459580.1208396376
 30
0
 10
0
 20
360000
 30
0
  0
SPLINE
  5
11C
100
AcDbEntity
  8
noname5
  6
ByLayer
 62
  256
370
   -1
100
AcDbSpline
210
0
220
0
230
0
 70
    8
 71
    2
 72
    6
 73
    3
 74
    0
 42
1e-07
 43
1e-07
 40
0
 40
0
 40
0
 40
1
 40
1
 40
1
 10
700000
 20
900000
 30
0
 10
865079.137345597
 20
624074.3397634703
 30
0
 10
900000
 20
300000
 30
0
  0
SPLINE
  5
11D
100
AcDbEntity
  8
noname5
  6
ByLayer
 62
  256
370
   -1
100
AcDbSpline
210
0
220
0
230
0
 70
    8
 71
    2
 72
    6
 73
    3
 74
    0
 42
1e-07
 43
1e-07
 40
0
 40
0
 40
0
 40
1
 40
1
 40
1
 10
900000
 20
1000000
 30
0
 10
1211474.080342631
 20
791425.0707428746
 30
0
 10
1200000
 20
400000
 30
0
  0
SPLINE
  5
11E
100
AcDbEntity
  8
noname7
  6
ByLayer
 62
  256
370
   -1
100
AcDbSpline
210
0
220
0
230
0
 70
    8
 71
    2
 72
    7
 73
    4
 74
    0
 42
1e-07
 43
1e-07
 40
0
 40
0
 40
0
 40
0.5
 40
1
 40
1
 40
1
 10
0
 20
1500000
 30
0
 10
356854.6991534894
 20
1910012.065497143
 30
0
 10
-188485.3752715922
 20
2657432.975599812
 30
0
 10
-500000
 20
2400000
 30
0
  0
SPLINE
  5
11F
100
AcDbEntity
  8
noname7
  6
ByLayer
 62
  256
370
   -1
100
AcDbSpline
210
0
220
0
230
0
 70
    8
 71
    2
 72
    7
 73
    4
 74
    0
 42
1e-07
 43
1e-07
 40
0
 40
0
 40
0
 40
0.5
 40
1
 40
1
 40
1
 10
0
 20
1500000
 30
0
 10
223720.0480194654
 20
1925548.092544188
 30
0
 10
-194987.2681442575
 20
2371424.293557979
 30
0
 10
-400000
 20
2300000
 30
0
  0
LINE
  5
120
100
AcDbEntity
  8
noname7
  6
ByLayer
 62
  256
370
   -1
100
AcDbLine
 10
-500000
 20
2400000
 11
-400000
 21
2300000
  0
SPLINE
  5
121
100
AcDbEntity
  8
noname6
  6
ByLayer
 62
  256
370
   -1
100
AcDbSpline
210
0
220
0
230
0
 70
    8
 71
    2
 72
    6
 73
    3
 74
    0
 42
1e-07
 43
1e-07
 40
0
 40
0
 40
0
 40
1
 40
1
 40
1
 10
-200000
 20
-600000
 30
0
 10
0
 20
-700000
 30
0
 10
200000
 20
-600000
 30
0
  0
LINE
  5
122
100
AcDbEntity
  8
noname6
  6
ByLayer
 62
  256
370
   -1
100
AcDbLine
 10
200000
 20
-600000
 11
230000
 21
-650000
  0
LINE
  5
123
100
AcDbEntity
  8
noname6
  6
ByLayer
 62
  256
370
   -1
100
AcDbLine
 10
230000
 20
-650000
 11
260000
 21
-600000
  0
LINE
  5
124
100
AcDbEntity
  8
noname6
  6
ByLayer
 62
  256
370
   -1
100
AcDbLine
 10
-200000
 20
-600000
 11
-230000
 21
-650000
  0
LINE
  5
125
100
AcDbEntity
  8
noname6
  6
ByLayer
 62
  256
370
   -1
100
AcDbLine
 10
-230000
 20
-650000
 11
-260000
 21
-600000
  0
SPLINE
  5
126
100
AcDbEntity
  8
noname5
  6
ByLayer
 62
  256
370
   -1
100
AcDbSpline
210
0
220
0
230
0
 70
    8
 71
    2
 72
    6
 73
    3
 74
    0
 42
1e-07
 43
1e-07
 40
0
 40
0
 40
0
 40
1
 40
1
 40
1
 10
-600000
 20
1000000
 30
0
 10
-616531.9700416146
 20
690039.4699216384
 30
0
 10
-500000
 20
400000
 30
0
  0
SPLINE
  5
127
100
AcDbEntity
  8
noname5
  6
ByLayer
 62
  256
370
   -1
100
AcDbSpline
210
0
220
0
230
0
 70
    8
 71
    2
 72
    6
 73
    3
 74
    0
 42
1e-07
 43
1e-07
 40
0
 40
0
 40
0
 40
1
 40
1
 40
1
 10
600000
 20
1000000
 30
0
 10
616531.9700416146
 20
690039.4699216381
 30
0
 10
500000
 20
400000
 30
0
  0
SPLINE
  5
128
100
AcDbEntity
  8
noname5
  6
ByLayer
 62
  256
370
   -1
100
AcDbSpline
210
0
220
0
230
0
 70
    8
 71
    2
 72
    6
 73
    3
 74
    0
 42
1e-07
 43
1e-07
 40
0
 40
0
 40
0
 40
1
 40
1
 40
1
 10
-480000
 20
969999.9999999997
 30
0
 10
-573153.8635967301
 20
712465.5591829949
 30
0
 10
-380000
 20
490000
 30
0
  0
SPLINE
  5
129
100
AcDbEntity
  8
noname5
  6
ByLayer
 62
  256
370
   -1
100
AcDbSpline
210
0
220
0
230
0
 70
    8
 71
    2
 72
    6
 73
    3
 74
    0
 42
1e-07
 43
1e-07
 40
0
 40
0
 40
0
 40
1
 40
1
 40
1
 10
-380000
 20
490000
 30
0
 10
-355323.429075426
 20
590159.5468450033
 30
0
 10
-390000
 20
690000
 30
0
  0
SPLINE
  5
12A
100
AcDbEntity
  8
noname5
  6
ByLayer
 62
  256
370
   -1
100
AcDbSpline
210
0
220
0
230
0
 70
    8
 71
    2
 72
    6
 73
    3
 74
    0
 42
1e-07
 43
1e-07
 40
0
 40
0
 40
0
 40
1
 40
1
 40
1
 10
480000
 20
969999.9999999997
 30
0
 10
573153.8635967301
 20
712465.5591829949
 30
0
 10
380000
 20
490000
 30
0
  0
SPLINE
  5
12B
100
AcDbEntity
  8
noname5
  6
ByLayer
 62
  256
370
   -1
100
AcDbSpline
210
0
220
0
230
0
 70
    8
 71
    2
 72
    6
 73
    3
 74
    0
 42
1e-07
 43
1e-07
 40
0
 40
0
 40
0
 40
1
 40
1
 40
1
 10
380000
 20
490000
 30
0
 10
355323.429075426
 20
590159.5468450033
 30
0
 10
390000
 20
690000
 30
0
  0
SPLINE
  5
12C
100
AcDbEntity
  8
noname8
  6
ByLayer
 62
  256
370
   -1
100
AcDbSpline
210
0
220
0
230
0
 70
    8
 71
    2
 72
    6
 73
    3
 74
    0
 42
1e-07
 43
1e-07
 40
0
 40
0
 40
0
 40
1
 40
1
 40
1
 10
-500000
 20
400000
 30
0
 10
-603429.9837830389
 20
674450.673491456
 30
0
 10
-480000
 20
970000
 30
0
  0
SPLINE
  5
12D
100
AcDbEntity
  8
noname8
  6
ByLayer
 62
  256
370
   -1
100
AcDbSpline
210
0
220
0
230
0
 70
    8
 71
    2
 72
    6
 73
    3
 74
    0
 42
1e-07
 43
1e-07
 40
0
 40
0
 40
0
 40
1
 40
1
 40
1
 10
-390000
 20
690000
 30
0
 10
-279294.6336026709
 20
542208.4911897426
 30
0
 10
-340000
 20
350000
 30
0
  0
SPLINE
  5
12E
100
AcDbEntity
  8
noname8
  6
ByLayer
 62
  256
370
   -1
100
AcDbSpline
210
0
220
0
230
0
 70
    8
 71
    2
 72
    6
 73
    3
 74
    0
 42
1e-07
 43
1e-07
 40
0
 40
0
 40
0
 40
1
 40
1
 40
1
 10
-340000
 20
350000
 30
0
 10
-228160.0695312413
 20
457784.2918987843
 30
0
 10
-300000
 20
630000
 30
0
  0
SPLINE
  5
12F
100
AcDbEntity
  8
noname8
  6
ByLayer
 62
  256
370
   -1
100
AcDbSpline
210
0
220
0
230
0
 70
    8
 71
    2
 72
    6
 73
    3
 74
    0
 42
1e-07
 43
1e-07
 40
0
 40
0
 40
0
 40
1
 40
1
 40
1
 10
-300000
 20
630000
 30
0
 10
-228418.8611699158
 20
447822.4186072216
 30
0
 10
-60000
 20
340000
 30
0
  0
SPLINE
  5
130
100
AcDbEntity
  8
noname8
  6
ByLayer
 62
  256
370
   -1
100
AcDbSpline
210
0
220
0
230
0
 70
    8
 71
    2
 72
    6
 73
    3
 74
    0
 42
1e-07
 43
1e-07
 40
0
 40
0
 40
0
 40
1
 40
1
 40
1
 10
-60000
 20
340000
 30
0
 10
-155470.019622523
 20
447149.5166791446
 30
0
 10
-100000
 20
600000
 30
0
  0
SPLINE
  5
131
100
AcDbEntity
  8
noname8
  6
ByLayer
 62
  256
370
   -1
100
AcDbSpline
210
0
220
0
230
0
 70
    8
 71
    2
 72
    6
 73
    3
 74
    0
 42
1e-07
 43
1e-07
 40
0
 40
0
 40
0
 40
1
 40
1
 40
1
 10
-1100000
 20
1400000
 30
0
 10
-1359087.894786875
 20
1062128.245497291
 30
0
 10
-1800000
 20
1000000
 30
0
  0
SPLINE
  5
132
100
AcDbEntity
  8
noname8
  6
ByLayer
 62
  256
370
   -1
100
AcDbSpline
210
0
220
0
230
0
 70
    8
 71
    2
 72
    6
 73
    3
 74
    0
 42
1e-07
 43
1e-07
 40
0
 40
0
 40
0
 40
1
 40
1
 40
1
 10
-1800000
 20
1000000
 30
0
 10
-1554384.46988385
 20
1024655.781025002
 30
0
 10
-1320000
 20
1100000
 30
0
  0
SPLINE
  5
133
100
AcDbEntity
  8
noname8
  6
ByLayer
 62
  256
370
   -1
100
AcDbSpline
210
0
220
0
230
0
 70
    8
 71
    2
 72
    6
 73
    3
 74
    0
 42
1e-07
 43
1e-07
 40
0
 40
0
 40
0
 40
1
 40
1
 40
1
 10
-1320000
 20
1100000
 30
0
 10
-1544423.68285087
 20
849196.1544529076
 30
0
 10
-1600000
 20
500000
 30
0
  0
SPLINE
  5
134
100
AcDbEntity
  8
noname8
  6
ByLayer
 62
  256
370
   -1
100
AcDbSpline
210
0
220
0
230
0
 70
    8
 71
    2
 72
    6
 73
    3
 74
    0
 42
1e-07
 43
1e-07
 40
0
 40
0
 40
0
 40
1
 40
1
 40
1
 10
-1600000
 20
500000
 30
0
 10
-1515811.388300842
 20
747434.1649025256
 30
0
 10
-1300000
 20
900000
 30
0
  0
SPLINE
  5
135
100
AcDbEntity
  8
noname8
  6
ByLayer
 62
  256
370
   -1
100
AcDbSpline
210
0
220
0
230
0
 70
    8
 71
    2
 72
    6
 73
    3
 74
    0
 42
1e-07
 43
1e-07
 40
0
 40
0
 40
0
 40
1
 40
1
 40
1
 10
-1300000
 20
900000
 30
0
 10
-1749615.088301352
 20
405854.9313211698
 30
0
 10
-1500000
 20
-300000
 30
0
  0
SPLINE
  5
136
100
AcDbEntity
  8
noname8
  6
ByLayer
 62
  256
370
   -1
100
AcDbSpline
210
0
220
0
230
0
 70
    8
 71
    2
 72
    6
 73
    3
 74
    0
 42
1e-07
 43
1e-07
 40
0
 40
0
 40
0
 40
1
 40
1
 40
1
 10
-1500000
 20
-299999.9999999998
 30
0
 10
-1389153.477109067
 20
141004.7975821263
 30
0
 10
-1100000
 20
499999.9999999998
 30
0
  0
SPLINE
  5
137
100
AcDbEntity
  8
noname8
  6
ByLayer
 62
  256
370
   -1
100
AcDbSpline
210
0
220
0
230
0
 70
    8
 71
    2
 72
    6
 73
    3
 74
    0
 42
1e-07
 43
1e-07
 40
0
 40
0
 40
0
 40
1
 40
1
 40
1
 10
-1400000
 20
300000
 30
0
 10
-1455708.601453116
 20
-129986.7367239363
 30
0
 10
-1200000
 20
-500000
 30
0
  0
SPLINE
  5
138
100
AcDbEntity
  8
noname8
  6
ByLayer
 62
  256
370
   -1
100
AcDbSpline
210
0
220
0
230
0
 70
    8
 71
    2
 72
    6
 73
    3
 74
    0
 42
1e-07
 43
1e-07
 40
0
 40
0
 40
0
 40
1
 40
1
 40
1
 10
-1200000
 20
-500000
 30
0
 10
-1247434.164902525
 20
-184188.611699158
 30
0
 10
-1100000
 20
99999.99999999985
 30
0
  0
SPLINE
  5
139
100
AcDbEntity
  8
noname8
  6
ByLayer
 62
  256
370
   -1
100
AcDbSpline
210
0
220
0
230
0
 70
    8
 71
    2
 72
    6
 73
    3
 74
    0
 42
1e-07
 43
1e-07
 40
0
 40
0
 40
0
 40
1
 40
1
 40
1
 10
-1100000
 20
500000
 30
0
 10
-1202899.151085505
 20
-20049.00959975641
 30
0
 10
-800000
 20
-400000
 30
0
  0
SPLINE
  5
13A
100
AcDbEntity
  8
noname8
  6
ByLayer
 62
  256
370
   -1
100
AcDbSpline
210
0
220
0
230
0
 70
    8
 71
    2
 72
    6
 73
    3
 74
    0
 42
1e-07
 43
1e-07
 40
0
 40
0
 40
0
 40
1
 40
1
 40
1
 10
-800000
 20
-400000
 30
0
 10
-1011803.398874989
 20
-88196.60112501051
 30
0
 10
-900000
 20
300000
 30
0
  0
SPLINE
  5
13B
100
AcDbEntity
  8
noname8
  6
ByLayer
 62
  256
370
   -1
100
AcDbSpline
210
0
220
0
230
0
 70
    8
 71
    2
 72
    6
 73
    3
 74
    0
 42
1e-07
 43
1e-07
 40
0
 40
0
 40
0
 40
1
 40
1
 40
1
 10
-1200000
 20
0
 30
0
 10
-1225724.787771377
 20
-348672.9484566379
 30
0
 10
-900000
 20
-600000
 30
0
  0
SPLINE
  5
13C
100
AcDbEntity
  8
noname8
  6
ByLayer
 62
  256
370
   -1
100
AcDbSpline
210
0
220
0
230
0
 70
    8
 71
    2
 72
    6
 73
    3
 74
    0
 42
1e-07
 43
1e-07
 40
0
 40
0
 40
0
 40
1
 40
1
 40
1
 10
-900000
 20
-600000
 30
0
 10
-1089442.719099992
 20
-332917.9606750064
 30
0
 10
-1000000
 20
0
 30
0
  0
SPLINE
  5
13D
100
AcDbEntity
  8
noname8
  6
ByLayer
 62
  256
370
   -1
100
AcDbSpline
210
0
220
0
230
0
 70
    8
 71
    2
 72
    6
 73
    3
 74
    0
 42
1e-07
 43
1e-07
 40
0
 40
0
 40
0
 40
1
 40
1
 40
1
 10
-1200000
 20
800000
 30
0
 10
-1398861.62647929
 20
631615.9462310885
 30
0
 10
-1470000
 20
370000
 30
0
  0
SPLINE
  5
13E
100
AcDbEntity
  8
noname8
  6
ByLayer
 62
  256
370
   -1
100
AcDbSpline
210
0
220
0
230
0
 70
    8
 71
    2
 72
    6
 73
    3
 74
    0
 42
1e-07
 43
1e-07
 40
0
 40
0
 40
0
 40
1
 40
1
 40
1
 10
-1020000
 20
1030000
 30
0
 10
-1168808.727790926
 20
1010681.453314026
 30
0
 10
-1270000
 20
880000
 30
0
  0
SPLINE
  5
13F
100
AcDbEntity
  8
noname8
  6
ByLayer
 62
  256
370
   -1
100
AcDbSpline
210
0
220
0
230
0
 70
    8
 71
    2
 72
    6
 73
    3
 74
    0
 42
1e-07
 43
1e-07
 40
0
 40
0
 40
0
 40
1
 40
1
 40
1
 10
-400000
 20
1500000
 30
0
 10
-803245.7220445534
 20
1365486.575501869
 30
0
 10
-900000
 20
900000
 30
0
  0
SPLINE
  5
140
100
AcDbEntity
  8
noname8
  6
ByLayer
 62
  256
370
   -1
100
AcDbSpline
210
0
220
0
230
0
 70
    8
 71
    2
 72
    6
 73
    3
 74
    0
 42
1e-07
 43
1e-07
 40
0
 40
0
 40
0
 40
1
 40
1
 40
1
 10
-300000
 20
1400000
 30
0
 10
-467082.0393249936
 20
1177639.320225002
 30
0
 10
-400000
 20
900000
 30
0
  0
SPLINE
  5
141
100
AcDbEntity
  8
noname8
  6
ByLayer
 62
  256
370
   -1
100
AcDbSpline
210
0
220
0
230
0
 70
    8
 71
    2
 72
    6
 73
    3
 74
    0
 42
1e-07
 43
1e-07
 40
0
 40
0
 40
0
 40
1
 40
1
 40
1
 10
-100000
 20
1300000
 30
0
 10
-267082.0393249937
 20
1077639.320225002
 30
0
 10
-200000
 20
800000
 30
0
  0
SPLINE
  5
142
100
AcDbEntity
  8
noname8
  6
ByLayer
 62
  256
370
   -1
100
AcDbSpline
210
0
220
0
230
0
 70
    8
 71
    2
 72
    6
 73
    3
 74
    0
 42
1e-07
 43
1e-07
 40
0
 40
0
 40
0
 40
1
 40
1
 40
1
 10
-410410.3221504166
 20
1779984.037325406
 30
0
 10
-205650.5437079531
 20
1821845.705126161
 30
0
 10
3831.168340457301
 20
1829965.8152164
 30
0
  0
ARC
  5
143
100
AcDbEntity
  8
noname8
  6
ByLayer
 62
  256
370
   -1
100
AcDbCircle
 10
933012.7018922169
 20
1616025.403784434
 40
2777427.157485453
100
AcDbArc
 50
229.6289166379914
 51
250.3710833620086
  0
ARC
  5
144
100
AcDbEntity
  8
noname8
  6
ByLayer
 62
  256
370
   -1
100
AcDbCircle
 10
-933012.7018922261
 20
1616025.403784448
 40
2777427.15748547
100
AcDbArc
 50
289.6289166379915
 51
310.3710833620085
  0
SPLINE
  5
145
100
AcDbEntity
  8
noname8
  6
ByLayer
 62
  256
370
   -1
100
AcDbSpline
210
0
220
0
230
0
 70
    8
 71
    2
 72
    8
 73
    5
 74
    0
 42
1e-07
 43
1e-07
 40
0
 40
0
 40
0
 40
0.3333333333333333
 40
0.6666666666666666
 40
1
 40
1
 40
1
 10
0
 20
-300000
 30
0
 10
-25056.41057181156
 20
-319041.0210112435
 30
0
 10
-13766.3662386638
 20
-371720.7613382303
 30
0
 10
35413.24900127191
 20
-332834.0254422445
 30
0
 10
0
 20
-300000
 30
0
  0
SPLINE
  5
146
100
AcDbEntity
  8
noname8
  6
ByLayer
 62
  256
370
   -1
100
AcDbSpline
210
0
220
0
230
0
 70
    8
 71
    2
 72
    8
 73
    5
 74
    0
 42
1e-07
 43
1e-07
 40
0
 40
0
 40
0
 40
0.3333333333333333
 40
0.6666666666666666
 40
1
 40
1
 40
1
 10
100000
 20
100000
 30
0
 10
204160.2057774602
 20
-39241.87032754111
 30
0
 10
596581.8344615118
 20
-156940.6715288092
 30
0
 10
800683.6331076976
 20
111388.1343057618
 30
0
 10
900000
 20
200000
 30
0
  0
SPLINE
  5
147
100
AcDbEntity
  8
noname8
  6
ByLayer
 62
  256
370
   -1
100
AcDbSpline
210
0
220
0
230
0
 70
    8
 71
    2
 72
    6
 73
    3
 74
    0
 42
1e-07
 43
1e-07
 40
0
 40
0
 40
0
 40
1
 40
1
 40
1
 10
100000
 20
400000
 30
0
 10
376776.6952966369
 20
747487.3734152915
 30
0
 10
900000
 20
500000
 30
0
  0
SPLINE
  5
148
100
AcDbEntity
  8
noname8
  6
ByLayer
 62
  256
370
   -1
100
AcDbSpline
210
0
220
0
230
0
 70
    8
 71
    2
 72
    6
 73
    3
 74
    0
 42
1e-07
 43
1e-07
 40
0
 40
0
 40
0
 40
1
 40
1
 40
1
 10
100000
 20
200000
 30
0
 10
244721.3595499959
 20
389442.7190999916
 30
0
 10
500000
 20
400000
 30
0
  0
ARC
  5
149
100
AcDbEntity
  8
noname8
  6
ByLayer
 62
  256
370
   -1
100
AcDbCircle
 10
492336.4485981308
 20
99626.16822429909
 40
242336.7369371615
100
AcDbArc
 50
135.3281151395286
 51
221.2004756826146
  0
ARC
  5
14A
100
AcDbEntity
  8
noname8
  6
ByLayer
 62
  256
370
   -1
100
AcDbCircle
 10
499999.9999999999
 20
100000
 40
250000.0000000001
100
AcDbArc
 50
343.739795291688
 51
55.20717378013133
  0
CIRCLE
  5
14B
100
AcDbEntity
  8
noname8
  6
ByLayer
 62
  256
370
   -1
100
AcDbCircle
 10
500000
 20
100000
 40
100000
  0
CIRCLE
  5
14C
100
AcDbEntity
  8
noname8
  6
ByLayer
 62
  256
370
   -1
100
AcDbCircle
 10
500000
 20
100000
 40
160000
  0
LINE
  5
14D
100
AcDbEntity
  8
noname8
  6
ByLayer
 62
  256
370
   -1
100
AcDbLine
 10
386862.9150101524
 20
213137.0849898476
 11
613137.0849898476
 21
-13137.08498984759
  0
LINE
  5
14E
100
AcDbEntity
  8
noname8
  6
ByLayer
 62
  256
370
   -1
100
AcDbLine
 10
386862.9150101524
 20
-13137.08498984759
 11
613137.0849898476
 21
213137.0849898476
  0
LINE
  5
14F
100
AcDbEntity
  8
noname8
  6
ByLayer
 62
  256
370
   -1
100
AcDbLine
 10
-200000
 20
100000
 11
-700000
 21
-100000
  0
LINE
  5
150
100
AcDbEntity
  8
noname8
  6
ByLayer
 62
  256
370
   -1
100
AcDbLine
 10
-197825.8916004135
 20
108113.883008419
 11
-700000
 21
400000
  0
SPLINE
  5
151
100
AcDbEntity
  8
noname8
  6
ByLayer
 62
  256
370
   -1
100
AcDbSpline
210
0
220
0
230
0
 70
    8
 71
    2
 72
    6
 73
    3
 74
    0
 42
1e-07
 43
1e-07
 40
0
 40
0
 40
0
 40
1
 40
1
 40
1
 10
1094704.790911304
 20
2025485.943714412
 30
0
 10
1214919.53384235
 20
1542459.507702895
 30
0
 10
938421.4310110665
 20
1139158.966003425
 30
0
  0
SPLINE
  5
152
100
AcDbEntity
  8
noname8
  6
ByLayer
 62
  256
370
   -1
100
AcDbSpline
210
0
220
0
230
0
 70
    8
 71
    2
 72
    6
 73
    3
 74
    0
 42
1e-07
 43
1e-07
 40
0
 40
0
 40
0
 40
1
 40
1
 40
1
 10
1094704.790911304
 20
2025485.943714412
 30
0
 10
895635.7200763926
 20
1765916.285493423
 30
0
 10
613957.6008729554
 20
1602541.338275081
 30
0
  0
SPLINE
  5
153
100
AcDbEntity
  8
noname8
  6
ByLayer
 62
  256
370
   -1
100
AcDbSpline
210
0
220
0
230
0
 70
    8
 71
    2
 72
    6
 73
    3
 74
    0
 42
1e-07
 43
1e-07
 40
0
 40
0
 40
0
 40
1
 40
1
 40
1
 10
1094704.790911304
 20
2025485.943714412
 30
0
 10
1214919.53384235
 20
1542459.507702895
 30
0
 10
938421.4310110665
 20
1139158.966003425
 30
0
  0
SPLINE
  5
154
100
AcDbEntity
  8
noname8
  6
ByLayer
 62
  256
370
   -1
100
AcDbSpline
210
0
220
0
230
0
 70
    8
 71
    2
 72
    6
 73
    3
 74
    0
 42
1e-07
 43
1e-07
 40
0
 40
0
 40
0
 40
1
 40
1
 40
1
 10
1094704.790911304
 20
2025485.943714412
 30
0
 10
895635.7200763926
 20
1765916.285493423
 30
0
 10
613957.6008729554
 20
1602541.338275081
 30
0
  0
SPLINE
  5
155
100
AcDbEntity
  8
noname8
  6
ByLayer
 62
  256
370
   -1
100
AcDbSpline
210
0
220
0
230
0
 70
    8
 71
    2
 72
    6
 73
    3
 74
    0
 42
1e-07
 43
1e-07
 40
0
 40
0
 40
0
 40
1
 40
1
 40
1
 10
1094704.790911304
 20
2025485.943714412
 30
0
 10
1214919.53384235
 20
1542459.507702895
 30
0
 10
938421.4310110665
 20
1139158.966003425
 30
0
  0
SPLINE
  5
156
100
AcDbEntity
  8
noname8
  6
ByLayer
 62
  256
370
   -1
100
AcDbSpline
210
0
220
0
230
0
 70
    8
 71
    2
 72
    6
 73
    3
 74
    0
 42
1e-07
 43
1e-07
 40
0
 40
0
 40
0
 40
1
 40
1
 40
1
 10
1094704.790911304
 20
2025485.943714412
 30
0
 10
895635.7200763926
 20
1765916.285493423
 30
0
 10
613957.6008729554
 20
1602541.338275081
 30
0
  0
LINE
  5
157
100
AcDbEntity
  8
noname8
  6
ByLayer
 62
  256
370
   -1
100
AcDbLine
 10
335880.092735986
 20
1753116.56687638
 11
1094704.790911304
 21
2025485.943714412
  0
SPLINE
  5
158
100
AcDbEntity
  8
noname8
  6
ByLayer
 62
  256
370
   -1
100
AcDbSpline
210
0
220
0
230
0
 70
    8
 71
    2
 72
    6
 73
    3
 74
    0
 42
1e-07
 43
1e-07
 40
0
 40
0
 40
0
 40
1
 40
1
 40
1
 10
1094704.790911304
 20
2025485.943714412
 30
0
 10
1214919.53384235
 20
1542459.507702895
 30
0
 10
938421.4310110665
 20
1139158.966003425
 30
0
  0
SPLINE
  5
159
100
AcDbEntity
  8
noname8
  6
ByLayer
 62
  256
370
   -1
100
AcDbSpline
210
0
220
0
230
0
 70
    8
 71
    2
 72
    6
 73
    3
 74
    0
 42
1e-07
 43
1e-07
 40
0
 40
0
 40
0
 40
1
 40
1
 40
1
 10
1094704.790911304
 20
2025485.943714412
 30
0
 10
895635.7200763926
 20
1765916.285493423
 30
0
 10
613957.6008729554
 20
1602541.338275081
 30
0
  0
SPLINE
  5
15A
100
AcDbEntity
  8
noname8
  6
ByLayer
 62
  256
370
   -1
100
AcDbSpline
210
0
220
0
230
0
 70
    8
 71
    2
 72
    6
 73
    3
 74
    0
 42
1e-07
 43
1e-07
 40
0
 40
0
 40
0
 40
1
 40
1
 40
1
 10
-1094704.790911304
 20
2025485.943714412
 30
0
 10
-1214919.53384235
 20
1542459.507702895
 30
0
 10
-938421.4310110665
 20
1139158.966003425
 30
0
  0
SPLINE
  5
15B
100
AcDbEntity
  8
noname8
  6
ByLayer
 62
  256
370
   -1
100
AcDbSpline
210
0
220
0
230
0
 70
    8
 71
    2
 72
    6
 73
    3
 74
    0
 42
1e-07
 43
1e-07
 40
0
 40
0
 40
0
 40
1
 40
1
 40
1
 10
-1094704.790911304
 20
2025485.943714412
 30
0
 10
-895635.7200763926
 20
1765916.285493423
 30
0
 10
-613957.6008729554
 20
1602541.338275081
 30
0
  0
SPLINE
  5
15C
100
AcDbEntity
  8
noname8
  6
ByLayer
 62
  256
370
   -1
100
AcDbSpline
210
0
220
0
230
0
 70
    8
 71
    2
 72
    6
 73
    3
 74
    0
 42
1e-07
 43
1e-07
 40
0
 40
0
 40
0
 40
1
 40
1
 40
1
 10
-1094704.790911304
 20
2025485.943714412
 30
0
 10
-1214919.53384235
 20
1542459.507702895
 30
0
 10
-938421.4310110665
 20
1139158.966003425
 30
0
  0
SPLINE
  5
15D
100
AcDbEntity
  8
noname8
  6
ByLayer
 62
  256
370
   -1
100
AcDbSpline
210
0
220
0
230
0
 70
    8
 71
    2
 72
    6
 73
    3
 74
    0
 42
1e-07
 43
1e-07
 40
0
 40
0
 40
0
 40
1
 40
1
 40
1
 10
-1094704.790911304
 20
2025485.943714412
 30
0
 10
-895635.7200763926
 20
1765916.285493423
 30
0
 10
-613957.6008729554
 20
1602541.338275081
 30
0
  0
SPLINE
  5
15E
100
AcDbEntity
  8
noname8
  6
ByLayer
 62
  256
370
   -1
100
AcDbSpline
210
0
220
0
230
0
 70
    8
 71
    2
 72
    6
 73
    3
 74
    0
 42
1e-07
 43
1e-07
 40
0
 40
0
 40
0
 40
1
 40
1
 40
1
 10
-1094704.790911304
 20
2025485.943714412
 30
0
 10
-1214919.53384235
 20
1542459.507702895
 30
0
 10
-938421.4310110665
 20
1139158.966003425
 30
0
  0
SPLINE
  5
15F
100
AcDbEntity
  8
noname8
  6
ByLayer
 62
  256
370
   -1
100
AcDbSpline
210
0
220
0
230
0
 70
    8
 71
    2
 72
    6
 73
    3
 74
    0
 42
1e-07
 43
1e-07
 40
0
 40
0
 40
0
 40
1
 40
1
 40
1
 10
-1094704.790911304
 20
2025485.943714412
 30
0
 10
-895635.7200763926
 20
1765916.285493423
 30
0
 10
-613957.6008729554
 20
1602541.338275081
 30
0
  0
LINE
  5
160
100
AcDbEntity
  8
noname8
  6
ByLayer
 62
  256
370
   -1
100
AcDbLine
 10
-335880.092735986
 20
1753116.56687638
 11
-1094704.790911304
 21
2025485.943714412
  0
SPLINE
  5
161
100
AcDbEntity
  8
noname8
  6
ByLayer
 62
  256
370
   -1
100
AcDbSpline
210
0
220
0
230
0
 70
    8
 71
    2
 72
    6
 73
    3
 74
    0
 42
1e-07
 43
1e-07
 40
0
 40
0
 40
0
 40
1
 40
1
 40
1
 10
-1094704.790911304
 20
2025485.943714412
 30
0
 10
-1214919.53384235
 20
1542459.507702895
 30
0
 10
-938421.4310110665
 20
1139158.966003425
 30
0
  0
SPLINE
  5
162
100
AcDbEntity
  8
noname8
  6
ByLayer
 62
  256
370
   -1
100
AcDbSpline
210
0
220
0
230
0
 70
    8
 71
    2
 72
    6
 73
    3
 74
    0
 42
1e-07
 43
1e-07
 40
0
 40
0
 40
0
 40
1
 40
1
 40
1
 10
-1094704.790911304
 20
2025485.943714412
 30
0
 10
-895635.7200763926
 20
1765916.285493423
 30
0
 10
-613957.6008729554
 20
1602541.338275081
 30
0
  0
SPLINE
  5
163
100
AcDbEntity
  8
noname8
  6
ByLayer
 62
  256
370
   -1
100
AcDbSpline
210
0
220
0
230
0
 70
    8
 71
    2
 72
    6
 73
    3
 74
    0
 42
1e-07
 43
1e-07
 40
0
 40
0
 40
0
 40
1
 40
1
 40
1
 10
100000
 20
100000
 30
0
 10
435355.3390593274
 20
476776.6952966369
 30
0
 10
900000
 20
200000
 30
0
  0
SPLINE
  5
164
100
AcDbEntity
  8
noname8
  6
ByLayer
 62
  256
370
   -1
100
AcDbSpline
210
0
220
0
230
0
 70
    8
 71
    2
 72
    6
 73
    3
 74
    0
 42
1e-07
 43
1e-07
 40
0
 40
0
 40
0
 40
1
 40
1
 40
1
 10
-933784.0843676807
 20
-251961.1120668959
 30
0
 10
-905764.1732782326
 20
-377549.2514591608
 30
0
 10
-866025.4037844404
 20
-499999.9999999979
 30
0
  0
SPLINE
  5
165
100
AcDbEntity
  8
noname8
  6
ByLayer
 62
  256
370
   -1
100
AcDbSpline
210
0
220
0
230
0
 70
    8
 71
    2
 72
    6
 73
    3
 74
    0
 42
1e-07
 43
1e-07
 40
0
 40
0
 40
0
 40
1
 40
1
 40
1
 10
-600000
 20
1000000
 30
0
 10
-555278.6404500045
 20
665835.9213500129
 30
0
 10
-800000
 20
400000
 30
0
  0
SPLINE
  5
166
100
AcDbEntity
  8
noname8
  6
ByLayer
 62
  256
370
   -1
100
AcDbSpline
210
0
220
0
230
0
 70
    8
 71
    2
 72
    6
 73
    3
 74
    0
 42
1e-07
 43
1e-07
 40
0
 40
0
 40
0
 40
1
 40
1
 40
1
 10
-800000
 20
400000
 30
0
 10
-632917.9606750062
 20
622360.6797749979
 30
0
 10
-700000
 20
900000
 30
0
  0
SPLINE
  5
167
100
AcDbEntity
  8
noname8
  6
ByLayer
 62
  256
370
   -1
100
AcDbSpline
210
0
220
0
230
0
 70
    8
 71
    2
 72
    6
 73
    3
 74
    0
 42
1e-07
 43
1e-07
 40
0
 40
0
 40
0
 40
1
 40
1
 40
1
 10
-100000
 20
600000
 30
0
 10
-121199.9576001272
 20
459580.1208396376
 30
0
 10
0
 20
360000
 30
0
  0
SPLINE
  5
168
100
AcDbEntity
  8
noname8
  6
ByLayer
 62
  256
370
   -1
100
AcDbSpline
210
0
220
0
230
0
 70
    8
 71
    2
 72
    6
 73
    3
 74
    0
 42
1e-07
 43
1e-07
 40
0
 40
0
 40
0
 40
1
 40
1
 40
1
 10
-700000
 20
900000
 30
0
 10
-865079.137345597
 20
624074.3397634703
 30
0
 10
-900000
 20
300000
 30
0
  0
SPLINE
  5
169
100
AcDbEntity
  8
noname8
  6
ByLayer
 62
  256
370
   -1
100
AcDbSpline
210
0
220
0
230
0
 70
    8
 71
    2
 72
    6
 73
    3
 74
    0
 42
1e-07
 43
1e-07
 40
0
 40
0
 40
0
 40
1
 40
1
 40
1
 10
-900000
 20
1000000
 30
0
 10
-1211474.080342631
 20
791425.0707428746
 30
0
 10
-1200000
 20
400000
 30
0
  0
SPLINE
  5
16A
100
AcDbEntity
  8
noname8
  6
ByLayer
 62
  256
370
   -1
100
AcDbSpline
210
0
220
0
230
0
 70
    8
 71
    2
 72
    6
 73
    3
 74
    0
 42
1e-07
 43
1e-07
 40
0
 40
0
 40
0
 40
1
 40
1
 40
1
 10
500000
 20
400000
 30
0
 10
603429.9837830389
 20
674450.673491456
 30
0
 10
480000
 20
970000
 30
0
  0
SPLINE
  5
16B
100
AcDbEntity
  8
noname8
  6
ByLayer
 62
  256
370
   -1
100
AcDbSpline
210
0
220
0
230
0
 70
    8
 71
    2
 72
    6
 73
    3
 74
    0
 42
1e-07
 43
1e-07
 40
0
 40
0
 40
0
 40
1
 40
1
 40
1
 10
390000
 20
690000
 30
0
 10
279294.6336026709
 20
542208.4911897426
 30
0
 10
340000
 20
350000
 30
0
  0
SPLINE
  5
16C
100
AcDbEntity
  8
noname8
  6
ByLayer
 62
  256
370
   -1
100
AcDbSpline
210
0
220
0
230
0
 70
    8
 71
    2
 72
    6
 73
    3
 74
    0
 42
1e-07
 43
1e-07
 40
0
 40
0
 40
0
 40
1
 40
1
 40
1
 10
340000
 20
350000
 30
0
 10
228160.0695312413
 20
457784.2918987843
 30
0
 10
300000
 20
630000
 30
0
  0
SPLINE
  5
16D
100
AcDbEntity
  8
noname8
  6
ByLayer
 62
  256
370
   -1
100
AcDbSpline
210
0
220
0
230
0
 70
    8
 71
    2
 72
    6
 73
    3
 74
    0
 42
1e-07
 43
1e-07
 40
0
 40
0
 40
0
 40
1
 40
1
 40
1
 10
300000
 20
630000
 30
0
 10
228418.8611699158
 20
447822.4186072216
 30
0
 10
60000
 20
340000
 30
0
  0
SPLINE
  5
16E
100
AcDbEntity
  8
noname8
  6
ByLayer
 62
  256
370
   -1
100
AcDbSpline
210
0
220
0
230
0
 70
    8
 71
    2
 72
    6
 73
    3
 74
    0
 42
1e-07
 43
1e-07
 40
0
 40
0
 40
0
 40
1
 40
1
 40
1
 10
60000
 20
340000
 30
0
 10
155470.019622523
 20
447149.5166791446
 30
0
 10
100000
 20
600000
 30
0
  0
SPLINE
  5
16F
100
AcDbEntity
  8
noname8
  6
ByLayer
 62
  256
370
   -1
100
AcDbSpline
210
0
220
0
230
0
 70
    8
 71
    2
 72
    6
 73
    3
 74
    0
 42
1e-07
 43
1e-07
 40
0
 40
0
 40
0
 40
1
 40
1
 40
1
 10
1100000
 20
1400000
 30
0
 10
1359087.894786875
 20
1062128.245497291
 30
0
 10
1800000
 20
1000000
 30
0
  0
SPLINE
  5
170
100
AcDbEntity
  8
noname8
  6
ByLayer
 62
  256
370
   -1
100
AcDbSpline
210
0
220
0
230
0
 70
    8
 71
    2
 72
    6
 73
    3
 74
    0
 42
1e-07
 43
1e-07
 40
0
 40
0
 40
0
 40
1
 40
1
 40
1
 10
1800000
 20
1000000
 30
0
 10
1554384.46988385
 20
1024655.781025002
 30
0
 10
1320000
 20
1100000
 30
0
  0
SPLINE
  5
171
100
AcDbEntity
  8
noname8
  6
ByLayer
 62
  256
370
   -1
100
AcDbSpline
210
0
220
0
230
0
 70
    8
 71
    2
 72
    6
 73
    3
 74
    0
 42
1e-07
 43
1e-07
 40
0
 40
0
 40
0
 40
1
 40
1
 40
1
 10
1320000
 20
1100000
 30
0
 10
1544423.68285087
 20
849196.1544529076
 30
0
 10
1600000
 20
500000
 30
0
  0
SPLINE
  5
172
100
AcDbEntity
  8
noname8
  6
ByLayer
 62
  256
370
   -1
100
AcDbSpline
210
0
220
0
230
0
 70
    8
 71
    2
 72
    6
 73
    3
 74
    0
 42
1e-07
 43
1e-07
 40
0
 40
0
 40
0
 40
1
 40
1
 40
1
 10
1600000
 20
500000
 30
0
 10
1515811.388300842
 20
747434.1649025256
 30
0
 10
1300000
 20
900000
 30
0
  0
SPLINE
  5
173
100
AcDbEntity
  8
noname8
  6
ByLayer
 62
  256
370
   -1
100
AcDbSpline
210
0
220
0
230
0
 70
    8
 71
    2
 72
    6
 73
    3
 74
    0
 42
1e-07
 43
1e-07
 40
0
 40
0
 40
0
 40
1
 40
1
 40
1
 10
1300000
 20
900000
 30
0
 10
1749615.088301352
 20
405854.9313211698
 30
0
 10
1500000
 20
-300000
 30
0
  0
SPLINE
  5
174
100
AcDbEntity
  8
noname8
  6
ByLayer
 62
  256
370
   -1
100
AcDbSpline
210
0
220
0
230
0
 70
    8
 71
    2
 72
    6
 73
    3
 74
    0
 42
1e-07
 43
1e-07
 40
0
 40
0
 40
0
 40
1
 40
1
 40
1
 10
1500000
 20
-299999.9999999998
 30
0
 10
1389153.477109067
 20
141004.7975821265
 30
0
 10
1100000
 20
499999.9999999999
 30
0
  0
SPLINE
  5
175
100
AcDbEntity
  8
noname8
  6
ByLayer
 62
  256
370
   -1
100
AcDbSpline
210
0
220
0
230
0
 70
    8
 71
    2
 72
    6
 73
    3
 74
    0
 42
1e-07
 43
1e-07
 40
0
 40
0
 40
0
 40
1
 40
1
 40
1
 10
1400000
 20
300000
 30
0
 10
1455708.601453116
 20
-129986.7367239363
 30
0
 10
1200000
 20
-500000
 30
0
  0
SPLINE
  5
176
100
AcDbEntity
  8
noname8
  6
ByLayer
 62
  256
370
   -1
100
AcDbSpline
210
0
220
0
230
0
 70
    8
 71
    2
 72
    6
 73
    3
 74
    0
 42
1e-07
 43
1e-07
 40
0
 40
0
 40
0
 40
1
 40
1
 40
1
 10
1200000
 20
-500000
 30
0
 10
1247434.164902525
 20
-184188.611699158
 30
0
 10
1100000
 20
99999.99999999985
 30
0
  0
SPLINE
  5
177
100
AcDbEntity
  8
noname8
  6
ByLayer
 62
  256
370
   -1
100
AcDbSpline
210
0
220
0
230
0
 70
    8
 71
    2
 72
    6
 73
    3
 74
    0
 42
1e-07
 43
1e-07
 40
0
 40
0
 40
0
 40
1
 40
1
 40
1
 10
1100000
 20
500000
 30
0
 10
1202899.151085505
 20
-20049.00959975641
 30
0
 10
800000
 20
-400000
 30
0
  0
SPLINE
  5
178
100
AcDbEntity
  8
noname8
  6
ByLayer
 62
  256
370
   -1
100
AcDbSpline
210
0
220
0
230
0
 70
    8
 71
    2
 72
    6
 73
    3
 74
    0
 42
1e-07
 43
1e-07
 40
0
 40
0
 40
0
 40
1
 40
1
 40
1
 10
800000
 20
-400000
 30
0
 10
1011803.398874989
 20
-88196.60112501051
 30
0
 10
900000
 20
300000
 30
0
  0
SPLINE
  5
179
100
AcDbEntity
  8
noname8
  6
ByLayer
 62
  256
370
   -1
100
AcDbSpline
210
0
220
0
230
0
 70
    8
 71
    2
 72
    6
 73
    3
 74
    0
 42
1e-07
 43
1e-07
 40
0
 40
0
 40
0
 40
1
 40
1
 40
1
 10
1200000
 20
0
 30
0
 10
1225724.787771377
 20
-348672.9484566379
 30
0
 10
900000
 20
-600000
 30
0
  0
SPLINE
  5
17A
100
AcDbEntity
  8
noname8
  6
ByLayer
 62
  256
370
   -1
100
AcDbSpline
210
0
220
0
230
0
 70
    8
 71
    2
 72
    6
 73
    3
 74
    0
 42
1e-07
 43
1e-07
 40
0
 40
0
 40
0
 40
1
 40
1
 40
1
 10
900000
 20
-600000
 30
0
 10
1089442.719099992
 20
-332917.9606750064
 30
0
 10
1000000
 20
0
 30
0
  0
SPLINE
  5
17B
100
AcDbEntity
  8
noname8
  6
ByLayer
 62
  256
370
   -1
100
AcDbSpline
210
0
220
0
230
0
 70
    8
 71
    2
 72
    6
 73
    3
 74
    0
 42
1e-07
 43
1e-07
 40
0
 40
0
 40
0
 40
1
 40
1
 40
1
 10
1200000
 20
800000
 30
0
 10
1398861.62647929
 20
631615.9462310885
 30
0
 10
1470000
 20
370000
 30
0
  0
SPLINE
  5
17C
100
AcDbEntity
  8
noname8
  6
ByLayer
 62
  256
370
   -1
100
AcDbSpline
210
0
220
0
230
0
 70
    8
 71
    2
 72
    6
 73
    3
 74
    0
 42
1e-07
 43
1e-07
 40
0
 40
0
 40
0
 40
1
 40
1
 40
1
 10
1020000
 20
1030000
 30
0
 10
1168808.727790926
 20
1010681.453314026
 30
0
 10
1270000
 20
880000
 30
0
  0
SPLINE
  5
17D
100
AcDbEntity
  8
noname8
  6
ByLayer
 62
  256
370
   -1
100
AcDbSpline
210
0
220
0
230
0
 70
    8
 71
    2
 72
    6
 73
    3
 74
    0
 42
1e-07
 43
1e-07
 40
0
 40
0
 40
0
 40
1
 40
1
 40
1
 10
400000
 20
1500000
 30
0
 10
803245.7220445534
 20
1365486.575501869
 30
0
 10
900000
 20
900000
 30
0
  0
SPLINE
  5
17E
100
AcDbEntity
  8
noname8
  6
ByLayer
 62
  256
370
   -1
100
AcDbSpline
210
0
220
0
230
0
 70
    8
 71
    2
 72
    6
 73
    3
 74
    0
 42
1e-07
 43
1e-07
 40
0
 40
0
 40
0
 40
1
 40
1
 40
1
 10
300000
 20
1400000
 30
0
 10
467082.0393249936
 20
1177639.320225002
 30
0
 10
400000
 20
900000
 30
0
  0
SPLINE
  5
17F
100
AcDbEntity
  8
noname8
  6
ByLayer
 62
  256
370
   -1
100
AcDbSpline
210
0
220
0
230
0
 70
    8
 71
    2
 72
    6
 73
    3
 74
    0
 42
1e-07
 43
1e-07
 40
0
 40
0
 40
0
 40
1
 40
1
 40
1
 10
100000
 20
1300000
 30
0
 10
267082.0393249937
 20
1077639.320225002
 30
0
 10
200000
 20
800000
 30
0
  0
SPLINE
  5
180
100
AcDbEntity
  8
noname8
  6
ByLayer
 62
  256
370
   -1
100
AcDbSpline
210
0
220
0
230
0
 70
    8
 71
    2
 72
    6
 73
    3
 74
    0
 42
1e-07
 43
1e-07
 40
0
 40
0
 40
0
 40
1
 40
1
 40
1
 10
410410.3221504166
 20
1779984.037325406
 30
0
 10
205650.5437079532
 20
1821845.705126162
 30
0
 10
-3831.168340457301
 20
1829965.8152164
 30
0
  0
SPLINE
  5
181
100
AcDbEntity
  8
noname8
  6
ByLayer
 62
  256
370
   -1
100
AcDbSpline
210
0
220
0
230
0
 70
    8
 71
    2
 72
    6
 73
    3
 74
    0
 42
1e-07
 43
1e-07
 40
0
 40
0
 40
0
 40
1
 40
1
 40
1
 10
933784.0843676807
 20
-251961.112066896
 30
0
 10
905764.1732782322
 20
-377549.2514591608
 30
0
 10
866025.4037844404
 20
-499999.9999999979
 30
0
  0
SPLINE
  5
182
100
AcDbEntity
  8
noname8
  6
ByLayer
 62
  256
370
   -1
100
AcDbSpline
210
0
220
0
230
0
 70
    8
 71
    2
 72
    6
 73
    3
 74
    0
 42
1e-07
 43
1e-07
 40
0
 40
0
 40
0
 40
1
 40
1
 40
1
 10
600000
 20
1000000
 30
0
 10
555278.6404500045
 20
665835.9213500129
 30
0
 10
800000
 20
400000
 30
0
  0
SPLINE
  5
183
100
AcDbEntity
  8
noname8
  6
ByLayer
 62
  256
370
   -1
100
AcDbSpline
210
0
220
0
230
0
 70
    8
 71
    2
 72
    6
 73
    3
 74
    0
 42
1e-07
 43
1e-07
 40
0
 40
0
 40
0
 40
1
 40
1
 40
1
 10
800000
 20
400000
 30
0
 10
632917.9606750062
 20
622360.6797749979
 30
0
 10
700000
 20
900000
 30
0
  0
SPLINE
  5
184
100
AcDbEntity
  8
noname8
  6
ByLayer
 62
  256
370
   -1
100
AcDbSpline
210
0
220
0
230
0
 70
    8
 71
    2
 72
    6
 73
    3
 74
    0
 42
1e-07
 43
1e-07
 40
0
 40
0
 40
0
 40
1
 40
1
 40
1
 10
100000
 20
600000
 30
0
 10
121199.9576001272
 20
459580.1208396376
 30
0
 10
0
 20
360000
 30
0
  0
SPLINE
  5
185
100
AcDbEntity
  8
noname8
  6
ByLayer
 62
  256
370
   -1
100
AcDbSpline
210
0
220
0
230
0
 70
    8
 71
    2
 72
    6
 73
    3
 74
    0
 42
1e-07
 43
1e-07
 40
0
 40
0
 40
0
 40
1
 40
1
 40
1
 10
700000
 20
900000
 30
0
 10
865079.137345597
 20
624074.3397634703
 30
0
 10
900000
 20
300000
 30
0
  0
SPLINE
  5
186
100
AcDbEntity
  8
noname8
  6
ByLayer
 62
  256
370
   -1
100
AcDbSpline
210
0
220
0
230
0
 70
    8
 71
    2
 72
    6
 73
    3
 74
    0
 42
1e-07
 43
1e-07
 40
0
 40
0
 40
0
 40
1
 40
1
 40
1
 10
900000
 20
1000000
 30
0
 10
1211474.080342631
 20
791425.0707428746
 30
0
 10
1200000
 20
400000
 30
0
  0
SPLINE
  5
187
100
AcDbEntity
  8
noname8
  6
ByLayer
 62
  256
370
   -1
100
AcDbSpline
210
0
220
0
230
0
 70
    8
 71
    2
 72
    7
 73
    4
 74
    0
 42
1e-07
 43
1e-07
 40
0
 40
0
 40
0
 40
0.5
 40
1
 40
1
 40
1
 10
0
 20
1500000
 30
0
 10
356854.6991534894
 20
1910012.065497143
 30
0
 10
-188485.3752715922
 20
2657432.975599812
 30
0
 10
-500000
 20
2400000
 30
0
  0
SPLINE
  5
188
100
AcDbEntity
  8
noname8
  6
ByLayer
 62
  256
370
   -1
100
AcDbSpline
210
0
220
0
230
0
 70
    8
 71
    2
 72
    7
 73
    4
 74
    0
 42
1e-07
 43
1e-07
 40
0
 40
0
 40
0
 40
0.5
 40
1
 40
1
 40
1
 10
0
 20
1500000
 30
0
 10
223720.0480194654
 20
1925548.092544188
 30
0
 10
-194987.2681442575
 20
2371424.293557979
 30
0
 10
-400000
 20
2300000
 30
0
  0
LINE
  5
189
100
AcDbEntity
  8
noname8
  6
ByLayer
 62
  256
370
   -1
100
AcDbLine
 10
-500000
 20
2400000
 11
-400000
 21
2300000
  0
SPLINE
  5
18A
100
AcDbEntity
  8
noname8
  6
ByLayer
 62
  256
370
   -1
100
AcDbSpline
210
0
220
0
230
0
 70
    8
 71
    2
 72
    6
 73
    3
 74
    0
 42
1e-07
 43
1e-07
 40
0
 40
0
 40
0
 40
1
 40
1
 40
1
 10
-200000
 20
-600000
 30
0
 10
0
 20
-700000
 30
0
 10
200000
 20
-600000
 30
0
  0
LINE
  5
18B
100
AcDbEntity
  8
noname8
  6
ByLayer
 62
  256
370
   -1
100
AcDbLine
 10
200000
 20
-600000
 11
230000
 21
-650000
  0
LINE
  5
18C
100
AcDbEntity
  8
noname8
  6
ByLayer
 62
  256
370
   -1
100
AcDbLine
 10
230000
 20
-650000
 11
260000
 21
-600000
  0
LINE
  5
18D
100
AcDbEntity
  8
noname8
  6
ByLayer
 62
  256
370
   -1
100
AcDbLine
 10
-200000
 20
-600000
 11
-230000
 21
-650000
  0
LINE
  5
18E
100
AcDbEntity
  8
noname8
  6
ByLayer
 62
  256
370
   -1
100
AcDbLine
 10
-230000
 20
-650000
 11
-260000
 21
-600000
  0
SPLINE
  5
18F
100
AcDbEntity
  8
noname8
  6
ByLayer
 62
  256
370
   -1
100
AcDbSpline
210
0
220
0
230
0
 70
    8
 71
    2
 72
    6
 73
    3
 74
    0
 42
1e-07
 43
1e-07
 40
0
 40
0
 40
0
 40
1
 40
1
 40
1
 10
-600000
 20
1000000
 30
0
 10
-616531.9700416146
 20
690039.4699216384
 30
0
 10
-500000
 20
400000
 30
0
  0
SPLINE
  5
190
100
AcDbEntity
  8
noname8
  6
ByLayer
 62
  256
370
   -1
100
AcDbSpline
210
0
220
0
230
0
 70
    8
 71
    2
 72
    6
 73
    3
 74
    0
 42
1e-07
 43
1e-07
 40
0
 40
0
 40
0
 40
1
 40
1
 40
1
 10
600000
 20
1000000
 30
0
 10
616531.9700416146
 20
690039.4699216381
 30
0
 10
500000
 20
400000
 30
0
  0
SPLINE
  5
191
100
AcDbEntity
  8
noname8
  6
ByLayer
 62
  256
370
   -1
100
AcDbSpline
210
0
220
0
230
0
 70
    8
 71
    2
 72
    6
 73
    3
 74
    0
 42
1e-07
 43
1e-07
 40
0
 40
0
 40
0
 40
1
 40
1
 40
1
 10
-480000
 20
969999.9999999997
 30
0
 10
-573153.8635967301
 20
712465.5591829949
 30
0
 10
-380000
 20
490000
 30
0
  0
SPLINE
  5
192
100
AcDbEntity
  8
noname8
  6
ByLayer
 62
  256
370
   -1
100
AcDbSpline
210
0
220
0
230
0
 70
    8
 71
    2
 72
    6
 73
    3
 74
    0
 42
1e-07
 43
1e-07
 40
0
 40
0
 40
0
 40
1
 40
1
 40
1
 10
-380000
 20
490000
 30
0
 10
-355323.429075426
 20
590159.5468450033
 30
0
 10
-390000
 20
690000
 30
0
  0
SPLINE
  5
193
100
AcDbEntity
  8
noname8
  6
ByLayer
 62
  256
370
   -1
100
AcDbSpline
210
0
220
0
230
0
 70
    8
 71
    2
 72
    6
 73
    3
 74
    0
 42
1e-07
 43
1e-07
 40
0
 40
0
 40
0
 40
1
 40
1
 40
1
 10
480000
 20
969999.9999999997
 30
0
 10
573153.8635967301
 20
712465.5591829949
 30
0
 10
380000
 20
490000
 30
0
  0
SPLINE
  5
194
100
AcDbEntity
  8
noname8
  6
ByLayer
 62
  256
370
   -1
100
AcDbSpline
210
0
220
0
230
0
 70
    8
 71
    2
 72
    6
 73
    3
 74
    0
 42
1e-07
 43
1e-07
 40
0
 40
0
 40
0
 40
1
 40
1
 40
1
 10
380000
 20
490000
 30
0
 10
355323.429075426
 20
590159.5468450033
 30
0
 10
390000
 20
690000
 30
0
  0
ENDSEC
  0
SECTION
  2
OBJECTS
  0
DICTIONARY
  5
C
330
0
100
AcDbDictionary
281
    1
  3
ACAD_GROUP
350
D
  0
DICTIONARY
  5
D
330
C
100
AcDbDictionary
281
    1
  0
PLOTSETTINGS
  5
195
100
AcDbPlotSettings
  6
1x1
 40
0
 41
0
 42
0
 43
0
  0
ENDSEC
  0
EOF
